<svg xmlns="http://www.w3.org/2000/svg" version="1.1" xmlns:xlink="http://www.w3.org/1999/xlink" xmlns:svgjs="http://svgjs.dev/svgjs" width="1000" height="623" viewBox="0 0 1000 623"><g transform="matrix(1,0,0,1,-0.6060606060606233,0.2522267206477409)"><svg viewBox="0 0 396 247" data-background-color="#ffffff" preserveAspectRatio="xMidYMid meet" height="623" width="1000" xmlns="http://www.w3.org/2000/svg" xmlns:xlink="http://www.w3.org/1999/xlink"><g id="tight-bounds" transform="matrix(1,0,0,1,0.2400000000000091,-0.09999999999999432)"><svg viewBox="0 0 395.52 247.2" height="247.2" width="395.52"><g><svg></svg></g><g><svg viewBox="0 0 395.52 247.2" height="247.2" width="395.52"><g transform="matrix(1,0,0,1,0,79.1588533296378)"><svg viewBox="0 0 395.52 88.88229334072442" height="88.88229334072442" width="395.52"><g><svg viewBox="0 0 395.52 88.88229334072442" height="88.88229334072442" width="395.52"><g><svg viewBox="0 0 395.52 88.88229334072442" height="88.88229334072442" width="395.52"><g><svg viewBox="0 0 395.52 88.88229334072442" height="88.88229334072442" width="395.52"><g id="textblocktransform"><svg viewBox="0 0 395.52 88.88229334072442" height="88.88229334072442" width="395.52" id="textblock"><g><svg viewBox="0 0 395.52 50.80808098987627" height="50.80808098987627" width="395.52"><g transform="matrix(1,0,0,1,0,0)"><svg width="395.52" viewBox="-3.099999964237213 -41.599998474121094 449.3600158691406 58.099998474121094" height="50.80808098987627" data-palette-color="#010c80"><g class="undefined-text-0" data-fill-palette-color="primary" id="text-0"><path d="M26.95-35.85L32.4-37.4 32.4 0 26.95 0 26.95-18.8 16.15-18.8 16.15 0 10.7 0 10.7-34.85Q7.95-33.75 6.38-31.33 4.8-28.9 4.8-25.55L4.8-25.55Q4.8-23.8 5.03-22.75 5.25-21.7 5.6-21.05 5.95-20.4 6.35-20.1 6.75-19.8 7.1-19.65L7.1-19.65Q5.8-19.65 4.67-19.98 3.55-20.3 2.73-21.05 1.9-21.8 1.4-22.98 0.9-24.15 0.9-25.85L0.9-25.85Q0.9-28.2 2-30.33 3.1-32.45 4.95-34.05 6.8-35.65 9.18-36.58 11.55-37.5 14.1-37.5L14.1-37.5Q14.65-37.5 15.15-37.48 15.65-37.45 16.15-37.4L16.15-37.4 16.15-21.75 26.95-21.75 26.95-35.85ZM48.9-25L53.9-25 53.9-8Q53.9-7.5 53.95-6.75 54-6 54.22-5.28 54.45-4.55 54.9-4.03 55.35-3.5 56.15-3.5L56.15-3.5Q58.6-3.5 59.75-8.95L59.75-8.95 61.6-8.95Q61.05-5.8 60.2-3.98 59.35-2.15 58.4-1.2 57.45-0.25 56.45 0.03 55.45 0.3 54.65 0.3L54.65 0.3Q53.5 0.3 52.67-0.1 51.85-0.5 51.27-1.15 50.7-1.8 50.35-2.65 50-3.5 49.8-4.4L49.8-4.4Q48.85-1.95 47.3-0.83 45.75 0.3 44.05 0.3L44.05 0.3Q42.6 0.3 41.3-0.1 40-0.5 39.05-1.43 38.1-2.35 37.55-3.83 37-5.3 37-7.45L37-7.45 37-25 42-25 42-8Q42-5.55 42.85-4.53 43.7-3.5 45-3.5L45-3.5Q45.7-3.5 46.4-3.88 47.1-4.25 47.65-4.95 48.2-5.65 48.55-6.65 48.9-7.65 48.9-8.95L48.9-8.95 48.9-25ZM59.7-25L64.7-25 64.7-21.55Q66-23.95 67.45-24.6 68.9-25.25 70.2-25.25L70.2-25.25Q71.5-25.25 72.47-24.9 73.45-24.55 74.15-23.95 74.85-23.35 75.32-22.55 75.8-21.75 76.1-20.8L76.1-20.8Q76.8-22.3 77.55-23.18 78.3-24.05 79.05-24.53 79.8-25 80.52-25.13 81.25-25.25 81.85-25.25L81.85-25.25Q84.1-25.25 85.47-24.4 86.85-23.55 87.55-22.23 88.25-20.9 88.47-19.33 88.7-17.75 88.7-16.3L88.7-16.3Q88.7-15.4 88.65-14.33 88.6-13.25 88.55-12.13 88.5-11 88.45-9.88 88.4-8.75 88.4-7.8L88.4-7.8Q88.4-7.4 88.45-6.68 88.5-5.95 88.7-5.25 88.9-4.55 89.35-4.03 89.8-3.5 90.65-3.5L90.65-3.5Q91.8-3.5 92.72-4.8 93.65-6.1 94.25-8.95L94.25-8.95 96.1-8.95Q95.55-5.8 94.7-3.98 93.85-2.15 92.9-1.2 91.95-0.25 91 0.03 90.05 0.3 89.25 0.3L89.25 0.3Q87.65 0.3 86.55-0.33 85.45-0.95 84.75-2 84.05-3.05 83.72-4.45 83.4-5.85 83.4-7.35L83.4-7.35Q83.4-7.8 83.42-9.03 83.45-10.25 83.47-11.65 83.5-13.05 83.52-14.3 83.55-15.55 83.55-16.05L83.55-16.05Q83.55-17.65 83.3-18.7 83.05-19.75 82.6-20.35 82.15-20.95 81.57-21.2 81-21.45 80.35-21.45L80.35-21.45Q78.8-21.45 77.82-20.2 76.85-18.95 76.45-16L76.45-16 76.45 0 71.45 0 71.45-16.7Q71.45-17.6 71.37-18.45 71.3-19.3 71-19.98 70.7-20.65 70.15-21.05 69.6-21.45 68.65-21.45L68.65-21.45Q67.05-21.45 66.22-20.13 65.4-18.8 64.7-16L64.7-16 64.7 0 59.7 0 59.7-25ZM107.79-25L112.79-25 112.79-8Q112.79-7.5 112.84-6.75 112.89-6 113.12-5.28 113.34-4.55 113.79-4.03 114.24-3.5 115.04-3.5L115.04-3.5Q117.49-3.5 118.64-8.95L118.64-8.95 120.49-8.95Q119.94-5.8 119.09-3.98 118.24-2.15 117.29-1.2 116.34-0.25 115.34 0.03 114.34 0.3 113.54 0.3L113.54 0.3Q112.39 0.3 111.57-0.1 110.74-0.5 110.17-1.15 109.59-1.8 109.24-2.65 108.89-3.5 108.69-4.45L108.69-4.45Q107.94-2.5 106.27-1.1 104.59 0.3 102.19 0.3L102.19 0.3Q100.69 0.3 99.17-0.3 97.64-0.9 96.42-2.27 95.19-3.65 94.42-5.83 93.64-8 93.64-11.15L93.64-11.15Q93.64-13.45 94.17-15.95 94.69-18.45 95.84-20.5 96.99-22.55 98.79-23.9 100.59-25.25 103.14-25.25L103.14-25.25Q103.74-25.25 104.42-25.13 105.09-25 105.72-24.7 106.34-24.4 106.89-23.88 107.44-23.35 107.79-22.6L107.79-22.6 107.79-25ZM103.44-3.5L103.44-3.5Q104.19-3.5 104.97-3.93 105.74-4.35 106.37-5.08 106.99-5.8 107.39-6.8 107.79-7.8 107.79-8.95L107.79-8.95 107.79-20.35Q107.44-21.15 106.72-21.83 105.99-22.5 104.84-22.5L104.84-22.5Q103.24-22.5 102.09-21.43 100.94-20.35 100.24-18.73 99.54-17.1 99.22-15.18 98.89-13.25 98.89-11.5L98.89-11.5Q98.89-7.2 100.07-5.35 101.24-3.5 103.44-3.5ZM118.59-25L123.59-25 123.59-21.2Q124.34-22.55 125.12-23.38 125.89-24.2 126.69-24.6 127.49-25 128.22-25.13 128.94-25.25 129.59-25.25L129.59-25.25Q131.84-25.25 133.22-24.4 134.59-23.55 135.29-22.23 135.99-20.9 136.22-19.33 136.44-17.75 136.44-16.3L136.44-16.3Q136.44-15.4 136.39-14.33 136.34-13.25 136.29-12.13 136.24-11 136.19-9.88 136.14-8.75 136.14-7.8L136.14-7.8Q136.14-7.4 136.19-6.68 136.24-5.95 136.44-5.25 136.64-4.55 137.09-4.03 137.54-3.5 138.39-3.5L138.39-3.5Q139.54-3.5 140.47-4.8 141.39-6.1 141.99-8.95L141.99-8.95 143.84-8.95Q143.29-5.8 142.44-3.98 141.59-2.15 140.64-1.2 139.69-0.25 138.74 0.03 137.79 0.3 136.99 0.3L136.99 0.3Q135.39 0.3 134.29-0.33 133.19-0.95 132.49-2 131.79-3.05 131.47-4.45 131.14-5.85 131.14-7.35L131.14-7.35Q131.14-7.8 131.17-9.03 131.19-10.25 131.22-11.65 131.24-13.05 131.27-14.3 131.29-15.55 131.29-16.05L131.29-16.05Q131.29-17.65 131.04-18.7 130.79-19.75 130.34-20.35 129.89-20.95 129.32-21.2 128.74-21.45 128.09-21.45L128.09-21.45Q126.54-21.45 125.42-20.2 124.29-18.95 123.59-16L123.59-16 123.59 0 118.59 0 118.59-25Z" fill="#010c80" data-fill-palette-color="primary"></path><path d="M168.64-9L169.89-8.5Q169.19-6.25 167.84-4.5 166.49-2.75 164.69-1.55 162.89-0.35 160.79 0.28 158.69 0.9 156.54 0.9L156.54 0.9Q153.69 0.9 151.67-0.13 149.64-1.15 148.37-2.75 147.09-4.35 146.49-6.38 145.89-8.4 145.89-10.45L145.89-10.45Q145.89-14.15 147.67-16.85 149.44-19.55 152.64-20.85L152.64-20.85Q150.24-22.35 149.19-24.3 148.14-26.25 148.14-28.4L148.14-28.4Q148.14-30.05 148.74-31.7 149.34-33.35 150.59-34.65 151.84-35.95 153.67-36.77 155.49-37.6 157.99-37.6L157.99-37.6Q159.34-37.6 160.72-37.3 162.09-37 163.19-36.27 164.29-35.55 164.97-34.33 165.64-33.1 165.64-31.25L165.64-31.25Q165.64-29.35 164.89-28.25 164.14-27.15 162.89-27.15L162.89-27.15Q161.54-27.15 160.24-28.5L160.24-28.5Q160.94-28.8 161.62-29.73 162.29-30.65 162.29-32.1L162.29-32.1Q162.29-33.05 161.94-33.73 161.59-34.4 161.02-34.85 160.44-35.3 159.74-35.5 159.04-35.7 158.29-35.7L158.29-35.7Q156.94-35.7 155.89-35.1 154.84-34.5 154.14-33.52 153.44-32.55 153.06-31.33 152.69-30.1 152.69-28.85L152.69-28.85Q152.69-28.3 152.81-27.18 152.94-26.05 153.52-24.83 154.09-23.6 155.22-22.48 156.34-21.35 158.29-20.9L158.29-20.9Q154.99-20.15 153.22-17.53 151.44-14.9 151.44-11.3L151.44-11.3Q151.44-7.7 153.37-5.38 155.29-3.05 159.29-3.05L159.29-3.05Q161.09-3.05 162.62-3.53 164.14-4 165.32-4.83 166.49-5.65 167.34-6.73 168.19-7.8 168.64-9L168.64-9ZM168.49-25L173.49-25 173.49-20.8Q174.09-21.7 174.66-22.5 175.24-23.3 175.94-23.9 176.64-24.5 177.49-24.88 178.34-25.25 179.39-25.25L179.39-25.25Q181.09-25.25 181.89-24.38 182.69-23.5 182.69-22.25L182.69-22.25Q182.69-21.5 182.44-21 182.19-20.5 181.84-20.2 181.49-19.9 181.09-19.78 180.69-19.65 180.39-19.65L180.39-19.65Q179.94-19.65 179.66-19.85 179.39-20.05 179.11-20.28 178.84-20.5 178.49-20.7 178.14-20.9 177.59-20.9L177.59-20.9Q176.44-20.9 175.39-20.1 174.34-19.3 173.49-18.4L173.49-18.4 173.49 0 168.49 0 168.49-25ZM185.29-25L190.29-25 190.29-20.8Q190.89-21.7 191.46-22.5 192.04-23.3 192.74-23.9 193.44-24.5 194.29-24.88 195.14-25.25 196.19-25.25L196.19-25.25Q197.89-25.25 198.69-24.38 199.49-23.5 199.49-22.25L199.49-22.25Q199.49-21.5 199.24-21 198.99-20.5 198.64-20.2 198.29-19.9 197.89-19.78 197.49-19.65 197.19-19.65L197.19-19.65Q196.74-19.65 196.46-19.85 196.19-20.05 195.91-20.28 195.64-20.5 195.29-20.7 194.94-20.9 194.39-20.9L194.39-20.9Q193.24-20.9 192.19-20.1 191.14-19.3 190.29-18.4L190.29-18.4 190.29 0 185.29 0 185.29-25ZM211.23-25.25L211.23-25.25Q213.18-25.25 214.58-24.65 215.98-24.05 216.88-22.98 217.78-21.9 218.31-20.45 218.83-19 219.08-17.35L219.08-17.35 219.38-17.35Q221.48-17.35 223.23-18.2 224.98-19.05 226.23-20.35L226.23-20.35 226.98-19Q225.98-17.4 223.81-16.35 221.63-15.3 219.33-14.9L219.33-14.9Q219.33-14.4 219.36-13.9 219.38-13.4 219.38-12.85L219.38-12.85Q219.38-6.7 217.13-3.2 214.88 0.3 210.83 0.3L210.83 0.3Q209.18 0.3 207.51-0.3 205.83-0.9 204.48-2.3 203.13-3.7 202.31-5.9 201.48-8.1 201.48-11.35L201.48-11.35Q201.48-13.55 201.96-16 202.43-18.45 203.56-20.5 204.68-22.55 206.56-23.9 208.43-25.25 211.23-25.25ZM211.73-3.5L211.73-3.5Q214.38-3.5 215.63-6.13 216.88-8.75 216.88-13.55L216.88-13.55Q216.88-13.85 216.88-14.15 216.88-14.45 216.83-14.75L216.83-14.75Q215.38-14.85 214.76-15.4 214.13-15.95 214.13-17.25L214.13-17.25Q214.13-18.4 214.63-18.88 215.13-19.35 216.13-19.4L216.13-19.4Q215.53-21.15 214.61-21.83 213.68-22.5 212.53-22.5L212.53-22.5Q210.98-22.5 209.91-21.48 208.83-20.45 208.16-18.85 207.48-17.25 207.18-15.33 206.88-13.4 206.88-11.55L206.88-11.55Q206.88-9.1 207.33-7.55 207.78-6 208.48-5.1 209.18-4.2 210.03-3.85 210.88-3.5 211.73-3.5ZM223.03-25L228.03-25 228.03-20.8Q228.63-21.7 229.21-22.5 229.78-23.3 230.48-23.9 231.18-24.5 232.03-24.88 232.88-25.25 233.93-25.25L233.93-25.25Q235.63-25.25 236.43-24.38 237.23-23.5 237.23-22.25L237.23-22.25Q237.23-21.5 236.98-21 236.73-20.5 236.38-20.2 236.03-19.9 235.63-19.78 235.23-19.65 234.93-19.65L234.93-19.65Q234.48-19.65 234.21-19.85 233.93-20.05 233.66-20.28 233.38-20.5 233.03-20.7 232.68-20.9 232.13-20.9L232.13-20.9Q230.98-20.9 229.93-20.1 228.88-19.3 228.03-18.4L228.03-18.4 228.03 0 223.03 0 223.03-25Z" fill="#a20000" data-fill-palette-color="secondary"></path><path d="M248.83-32.05L254.23-32.8 254.23-15.8Q256.43-15.8 258.01-16.73 259.58-17.65 260.58-19.1 261.58-20.55 262.06-22.38 262.53-24.2 262.53-26L262.53-26Q262.53-27.6 262.21-29.3 261.88-31 260.83-32.43 259.78-33.85 257.83-34.77 255.88-35.7 252.63-35.7L252.63-35.7Q250.43-35.7 248.48-35.02 246.53-34.35 245.11-33.08 243.68-31.8 242.86-29.93 242.03-28.05 242.03-25.6L242.03-25.6Q242.03-24.05 242.28-23 242.53-21.95 242.88-21.25 243.23-20.55 243.58-20.18 243.93-19.8 244.13-19.65L244.13-19.65Q241.33-19.65 239.73-21.05 238.13-22.45 238.13-25.7L238.13-25.7Q238.13-28.1 239.38-30.23 240.63-32.35 242.73-33.98 244.83-35.6 247.58-36.55 250.33-37.5 253.38-37.5L253.38-37.5Q256.68-37.5 259.28-36.68 261.88-35.85 263.63-34.38 265.38-32.9 266.31-30.95 267.23-29 267.23-26.75L267.23-26.75Q267.23-24.65 266.48-22.43 265.73-20.2 264.23-18.4 262.73-16.6 260.51-15.43 258.28-14.25 255.33-14.25L255.33-14.25 254.23-14.25 254.23 0 248.83 0 248.83-32.05ZM269.58-25L274.58-25 274.58-20.8Q275.18-21.7 275.75-22.5 276.33-23.3 277.03-23.9 277.73-24.5 278.58-24.88 279.43-25.25 280.48-25.25L280.48-25.25Q282.18-25.25 282.98-24.38 283.78-23.5 283.78-22.25L283.78-22.25Q283.78-21.5 283.53-21 283.28-20.5 282.93-20.2 282.58-19.9 282.18-19.78 281.78-19.65 281.48-19.65L281.48-19.65Q281.03-19.65 280.75-19.85 280.48-20.05 280.2-20.28 279.93-20.5 279.58-20.7 279.23-20.9 278.68-20.9L278.68-20.9Q277.53-20.9 276.48-20.1 275.43-19.3 274.58-18.4L274.58-18.4 274.58 0 269.58 0 269.58-25ZM295.53-25.25L295.53-25.25Q297.47-25.25 298.87-24.65 300.28-24.05 301.18-22.98 302.07-21.9 302.6-20.45 303.12-19 303.37-17.35L303.37-17.35 303.67-17.35Q305.78-17.35 307.53-18.2 309.28-19.05 310.53-20.35L310.53-20.35 311.28-19Q310.28-17.4 308.1-16.35 305.92-15.3 303.62-14.9L303.62-14.9Q303.62-14.4 303.65-13.9 303.67-13.4 303.67-12.85L303.67-12.85Q303.67-6.7 301.42-3.2 299.18 0.3 295.12 0.3L295.12 0.3Q293.47 0.3 291.8-0.3 290.12-0.9 288.78-2.3 287.43-3.7 286.6-5.9 285.78-8.1 285.78-11.35L285.78-11.35Q285.78-13.55 286.25-16 286.72-18.45 287.85-20.5 288.97-22.55 290.85-23.9 292.72-25.25 295.53-25.25ZM296.03-3.5L296.03-3.5Q298.68-3.5 299.93-6.13 301.18-8.75 301.18-13.55L301.18-13.55Q301.18-13.85 301.18-14.15 301.18-14.45 301.12-14.75L301.12-14.75Q299.68-14.85 299.05-15.4 298.43-15.95 298.43-17.25L298.43-17.25Q298.43-18.4 298.93-18.88 299.43-19.35 300.43-19.4L300.43-19.4Q299.82-21.15 298.9-21.83 297.97-22.5 296.82-22.5L296.82-22.5Q295.28-22.5 294.2-21.48 293.12-20.45 292.45-18.85 291.78-17.25 291.47-15.33 291.18-13.4 291.18-11.55L291.18-11.55Q291.18-9.1 291.62-7.55 292.07-6 292.78-5.1 293.47-4.2 294.32-3.85 295.18-3.5 296.03-3.5ZM307.32-8.95L307.37-34.3 312.37-35 312.37-23.15Q313.22-24 314.37-24.55 315.52-25.1 317.12-25.1L317.12-25.1Q318.47-25.1 319.92-24.63 321.37-24.15 322.62-22.95 323.87-21.75 324.67-19.65 325.47-17.55 325.47-14.3L325.47-14.3Q325.47-11.45 324.8-8.8 324.12-6.15 322.75-4.13 321.37-2.1 319.32-0.9 317.27 0.3 314.52 0.3L314.52 0.3Q312.97 0.3 311.65-0.18 310.32-0.65 309.37-1.73 308.42-2.8 307.87-4.58 307.32-6.35 307.32-8.95L307.32-8.95ZM321.02-13.15L321.02-13.15Q321.02-15.1 320.67-16.8 320.32-18.5 319.65-19.78 318.97-21.05 318-21.78 317.02-22.5 315.77-22.5L315.77-22.5Q314.77-22.5 313.92-22.03 313.07-21.55 312.37-20.8L312.37-20.8 312.37-7.65Q312.37-3.15 315.32-3.15L315.32-3.15Q316.72-3.15 317.8-3.98 318.87-4.8 319.6-6.2 320.32-7.6 320.67-9.4 321.02-11.2 321.02-13.15ZM341.67-25L346.67-25 346.67-8Q346.67-7.5 346.72-6.75 346.77-6 347-5.28 347.22-4.55 347.67-4.03 348.12-3.5 348.92-3.5L348.92-3.5Q351.37-3.5 352.52-8.95L352.52-8.95 354.37-8.95Q353.82-5.8 352.97-3.98 352.12-2.15 351.17-1.2 350.22-0.25 349.22 0.03 348.22 0.3 347.42 0.3L347.42 0.3Q346.27 0.3 345.45-0.1 344.62-0.5 344.05-1.15 343.47-1.8 343.12-2.65 342.77-3.5 342.57-4.45L342.57-4.45Q341.82-2.5 340.15-1.1 338.47 0.3 336.07 0.3L336.07 0.3Q334.57 0.3 333.05-0.3 331.52-0.9 330.3-2.27 329.07-3.65 328.3-5.83 327.52-8 327.52-11.15L327.52-11.15Q327.52-13.45 328.05-15.95 328.57-18.45 329.72-20.5 330.87-22.55 332.67-23.9 334.47-25.25 337.02-25.25L337.02-25.25Q337.62-25.25 338.3-25.13 338.97-25 339.6-24.7 340.22-24.4 340.77-23.88 341.32-23.35 341.67-22.6L341.67-22.6 341.67-25ZM337.32-3.5L337.32-3.5Q338.07-3.5 338.85-3.93 339.62-4.35 340.25-5.08 340.87-5.8 341.27-6.8 341.67-7.8 341.67-8.95L341.67-8.95 341.67-20.35Q341.32-21.15 340.6-21.83 339.87-22.5 338.72-22.5L338.72-22.5Q337.12-22.5 335.97-21.43 334.82-20.35 334.12-18.73 333.42-17.1 333.1-15.18 332.77-13.25 332.77-11.5L332.77-11.5Q332.77-7.2 333.95-5.35 335.12-3.5 337.32-3.5ZM352.47-8.95L352.52-34.3 357.52-35 357.52-23.15Q358.37-24 359.52-24.55 360.67-25.1 362.27-25.1L362.27-25.1Q363.62-25.1 365.07-24.63 366.52-24.15 367.77-22.95 369.02-21.75 369.82-19.65 370.62-17.55 370.62-14.3L370.62-14.3Q370.62-11.45 369.94-8.8 369.27-6.15 367.89-4.13 366.52-2.1 364.47-0.9 362.42 0.3 359.67 0.3L359.67 0.3Q358.12 0.3 356.79-0.18 355.47-0.65 354.52-1.73 353.57-2.8 353.02-4.58 352.47-6.35 352.47-8.95L352.47-8.95ZM366.17-13.15L366.17-13.15Q366.17-15.1 365.82-16.8 365.47-18.5 364.79-19.78 364.12-21.05 363.14-21.78 362.17-22.5 360.92-22.5L360.92-22.5Q359.92-22.5 359.07-22.03 358.22-21.55 357.52-20.8L357.52-20.8 357.52-7.65Q357.52-3.15 360.47-3.15L360.47-3.15Q361.87-3.15 362.94-3.98 364.02-4.8 364.74-6.2 365.47-7.6 365.82-9.4 366.17-11.2 366.17-13.15ZM373.42-25L378.42-25 378.42-8Q378.42-7.5 378.47-6.75 378.51-6 378.74-5.28 378.97-4.55 379.42-4.03 379.87-3.5 380.67-3.5L380.67-3.5Q383.12-3.5 384.26-8.95L384.26-8.95 386.12-8.95Q385.57-5.8 384.72-3.98 383.87-2.15 382.92-1.2 381.97-0.25 380.97 0.03 379.97 0.3 379.17 0.3L379.17 0.3Q377.42 0.3 376.32-0.38 375.22-1.05 374.57-2.1 373.92-3.15 373.67-4.45 373.42-5.75 373.42-6.95L373.42-6.95 373.42-25ZM372.51-32.2L372.51-32.2Q372.51-33.55 373.47-34.55 374.42-35.55 375.82-35.55L375.82-35.55Q377.17-35.55 378.17-34.55 379.17-33.55 379.17-32.2L379.17-32.2Q379.17-30.8 378.17-29.85 377.17-28.9 375.82-28.9L375.82-28.9Q374.42-28.9 373.47-29.85 372.51-30.8 372.51-32.2ZM384.26-34.3L389.26-35 389.26-8Q389.26-7.5 389.31-6.75 389.36-6 389.59-5.28 389.81-4.55 390.26-4.03 390.71-3.5 391.51-3.5L391.51-3.5Q393.96-3.5 395.11-8.95L395.11-8.95 396.96-8.95Q396.41-5.8 395.56-3.98 394.71-2.15 393.76-1.2 392.81-0.25 391.81 0.03 390.81 0.3 390.01 0.3L390.01 0.3Q388.26 0.3 387.16-0.38 386.06-1.05 385.41-2.1 384.76-3.15 384.51-4.45 384.26-5.75 384.26-6.95L384.26-6.95 384.26-34.3ZM395.06-25L400.06-25 400.06-8Q400.06-7.5 400.11-6.75 400.16-6 400.39-5.28 400.61-4.55 401.06-4.03 401.51-3.5 402.31-3.5L402.31-3.5Q404.76-3.5 405.91-8.95L405.91-8.95 407.76-8.95Q407.21-5.8 406.36-3.98 405.51-2.15 404.56-1.2 403.61-0.25 402.61 0.03 401.61 0.3 400.81 0.3L400.81 0.3Q399.06 0.3 397.96-0.38 396.86-1.05 396.21-2.1 395.56-3.15 395.31-4.45 395.06-5.75 395.06-6.95L395.06-6.95 395.06-25ZM394.16-32.2L394.16-32.2Q394.16-33.55 395.11-34.55 396.06-35.55 397.46-35.55L397.46-35.55Q398.81-35.55 399.81-34.55 400.81-33.55 400.81-32.2L400.81-32.2Q400.81-30.8 399.81-29.85 398.81-28.9 397.46-28.9L397.46-28.9Q396.06-28.9 395.11-29.85 394.16-30.8 394.16-32.2ZM405.91-31.9L410.91-32.6 410.91-25 414.76-25 414.76-23.25 410.91-23.25 410.91-8Q410.91-7.4 410.96-6.63 411.01-5.85 411.23-5.15 411.46-4.45 411.93-3.98 412.41-3.5 413.26-3.5L413.26-3.5Q414.61-3.5 415.83-4.85 417.06-6.2 417.76-8.95L417.76-8.95 419.61-8.95Q418.76-5.8 417.78-3.98 416.81-2.15 415.76-1.2 414.71-0.25 413.68 0.03 412.66 0.3 411.81 0.3L411.81 0.3Q410.01 0.3 408.86-0.38 407.71-1.05 407.06-2.1 406.41-3.15 406.16-4.42 405.91-5.7 405.91-6.95L405.91-6.95 405.91-23.25 404.21-23.25 404.21-25 405.91-25 405.91-31.9ZM429.56-25L434.56-25 434.56-1.05Q435.81-1.45 436.78-1.95 437.76-2.45 438.48-3.3 439.21-4.15 439.68-5.5 440.16-6.85 440.41-8.95L440.41-8.95 442.26-8.95Q441.86-6.3 441.23-4.63 440.61-2.95 439.68-1.93 438.76-0.9 437.48-0.33 436.21 0.25 434.56 0.75L434.56 0.75 434.56 3.95Q434.56 6.3 434.06 7.93 433.56 9.55 432.68 10.58 431.81 11.6 430.68 12.05 429.56 12.5 428.31 12.5L428.31 12.5Q425.81 12.5 424.41 11.08 423.01 9.65 423.01 7.6L423.01 7.6Q423.01 6.3 423.58 5.25 424.16 4.2 425.08 3.33 426.01 2.45 427.18 1.78 428.36 1.1 429.56 0.6L429.56 0.6 429.56-2.55Q428.56-1.1 427.28-0.4 426.01 0.3 424.71 0.3L424.71 0.3Q423.26 0.3 421.96-0.1 420.66-0.5 419.71-1.43 418.76-2.35 418.21-3.83 417.66-5.3 417.66-7.45L417.66-7.45 417.66-25 422.66-25 422.66-8Q422.66-5.55 423.51-4.53 424.36-3.5 425.66-3.5L425.66-3.5Q426.36-3.5 427.06-3.85 427.76-4.2 428.31-4.88 428.86-5.55 429.21-6.5 429.56-7.45 429.56-8.7L429.56-8.7 429.56-25ZM427.36 9.9L427.36 9.9Q428.71 9.9 429.13 8.88 429.56 7.85 429.56 6.1L429.56 6.1 429.56 2.6Q427.06 3.75 426.01 4.88 424.96 6 424.96 7.4L424.96 7.4Q424.96 8.55 425.58 9.22 426.21 9.9 427.36 9.9Z" fill="#0091cf" data-fill-palette-color="accent"></path></g></svg></g></svg></g><g transform="matrix(1,0,0,1,3.5,61.33221204488639)"><svg viewBox="0 0 388.52 27.550081295838023" height="27.550081295838023" width="388.52"><g transform="matrix(1,0,0,1,0,0)"><svg width="388.52" viewBox="-1.2999999523162842 -44.95000076293945 866.72998046875 61.400001525878906" height="27.550081295838023" data-palette-color="#a20000"><g class="undefined-text-1" data-fill-palette-color="secondary" id="text-1"><path d="M6.95-2.6L6.95-34.45 2.85-35 2.85-37.15 15.4-37.15 15.4-35 11.05-34.45 11.05-20.4 30.15-20.4 30.15-34.45 26-35 26-37.15 38.4-37.15 38.4-35 34.3-34.45 34.3-2.6 38.4-2.15 38.4 0 25.95 0 25.95-2.15 30.15-2.6 30.15-17.75 11.05-17.75 11.05-2.6 15.45-2.15 15.45 0 2.7 0 2.7-2.15 6.95-2.6ZM66.83 0.45Q65.53 0.45 64.93 0 64.33-0.45 64.33-1.65L64.33-1.65 64.33-3.6Q62.48-1.95 59.98-0.7 57.48 0.55 54.98 0.55L54.98 0.55Q50.43 0.55 48.51-2 46.58-4.55 46.58-10.3L46.58-10.3 46.58-25 43.63-25.85 43.63-27.7 49.68-28.35 49.73-28.35 50.63-27.75 50.63-10.9Q50.63-7.75 51.08-5.98 51.53-4.2 52.73-3.35 53.93-2.5 56.23-2.5L56.23-2.5Q58.43-2.5 60.43-3.45 62.43-4.4 63.88-5.7L63.88-5.7 63.88-25 60.08-25.85 60.08-27.7 66.73-28.35 66.78-28.35 67.93-27.75 67.93-2.2 71.03-2.2 70.98-0.3Q70.73-0.25 69.53 0.1 68.33 0.45 66.83 0.45L66.83 0.45ZM75.77 0L75.77-2.15 78.97-2.55 78.97-24.45 75.12-25.3 75.12-27.55 81.47-28.35 82.57-27.55 82.57-25.35 82.52-24.1Q84.37-25.7 87.37-27.05 90.37-28.4 92.82-28.4L92.82-28.4Q95.52-28.4 97.14-27.5 98.77-26.6 99.62-24.7L99.62-24.7Q101.17-26 104.14-27.2 107.12-28.4 109.62-28.4L109.62-28.4Q112.77-28.4 114.49-27.2 116.22-26 116.92-23.5 117.62-21 117.62-16.75L117.62-16.75 117.62-2.55 121.42-2.15 121.42 0 110.22 0 110.22-2.15 113.62-2.55 113.62-16.6Q113.62-19.75 113.17-21.6 112.72-23.45 111.42-24.4 110.12-25.35 107.62-25.35L107.62-25.35Q105.77-25.35 103.74-24.53 101.72-23.7 100.27-22.65L100.27-22.65Q100.77-20.35 100.77-16.65L100.77-16.65 100.77-2.55 104.57-2.15 104.57 0 93.12 0 93.12-2.15 96.72-2.55 96.72-16.7Q96.72-19.9 96.34-21.7 95.97-23.5 94.77-24.4 93.57-25.3 91.22-25.3L91.22-25.3Q89.27-25.3 86.99-24.33 84.72-23.35 83.02-22L83.02-22 83.02-2.55 86.57-2.15 86.57 0 75.77 0ZM125.8-7.3Q125.8-12.15 130.6-14.33 135.4-16.5 142.55-16.65L142.55-16.65 142.55-18.2Q142.55-20.75 142.03-22.23 141.5-23.7 140.2-24.38 138.9-25.05 136.55-25.05L136.55-25.05Q134-25.05 131.93-24.28 129.85-23.5 127.9-22.4L127.9-22.4 126.8-24.6Q127.35-25.1 129.1-26 130.85-26.9 133.1-27.6 135.35-28.3 137.45-28.3L137.45-28.3Q140.85-28.3 142.83-27.35 144.8-26.4 145.68-24.3 146.55-22.2 146.55-18.65L146.55-18.65 146.55-2.15 149.65-2.15 149.65-0.3Q146.9 0.45 145 0.45L145 0.45Q143.8 0.45 143.35 0.08 142.9-0.3 142.9-1.65L142.9-1.65 142.9-3.5Q141.1-1.9 138.98-0.68 136.85 0.55 134.15 0.55L134.15 0.55Q130.55 0.55 128.18-1.45 125.8-3.45 125.8-7.3L125.8-7.3ZM135.65-2.4Q137.05-2.4 139-3.3 140.95-4.2 142.55-5.45L142.55-5.45 142.55-14.3Q136.5-14.25 133.38-12.5 130.25-10.75 130.25-7.8L130.25-7.8Q130.25-4.95 131.7-3.68 133.15-2.4 135.65-2.4L135.65-2.4ZM156.99-2.55L156.99-24.45 153.14-25.3 153.14-27.55 159.49-28.35 159.64-28.35 160.59-27.55 160.59-25.35 160.54-24.1Q162.39-25.7 165.44-27.05 168.49-28.4 171.09-28.4L171.09-28.4Q174.29-28.4 176.01-27.18 177.74-25.95 178.41-23.43 179.09-20.9 179.09-16.65L179.09-16.65 179.09-2.5 182.84-2.15 182.84 0 171.69 0 171.69-2.15 175.04-2.5 175.04-16.7Q175.04-19.85 174.61-21.65 174.19-23.45 172.96-24.38 171.74-25.3 169.39-25.3L169.39-25.3Q167.39-25.3 165.06-24.3 162.74-23.3 161.04-21.95L161.04-21.95 161.04-2.55 164.69-2.15 164.69 0 153.64 0 153.64-2.15 156.99-2.55Z" fill="#010c80" data-fill-palette-color="primary"></path><path d="M196.32-2.6L196.32-34.45 192.12-35 192.12-37.15 216.87-37.15 217.57-29.8 215.17-29.8 213.82-34.6 200.42-34.85 200.42-20.3 209.62-20.45 210.27-24.6 212.77-24.6 212.77-13.55 210.27-13.55 209.62-17.8 200.42-17.95 200.42-2.55 215.72-2.95 218.27-9.2 220.67-8.45 219.12 0 192.02 0 192.02-2.15 196.32-2.6ZM224.9 0L224.9-2.1 228.9-2.4 228.9-24.45 225.05-25.3 225.05-27.55 231.4-28.35 231.5-28.35 232.45-27.55 232.45-26.75 232.35-22.95 232.45-22.95Q232.55-23.05 233.78-24.48 235-25.9 237.43-27.2 239.85-28.5 242.3-28.5L242.3-28.5Q243.1-28.5 243.8-28.3L243.8-28.3 243.8-23.9Q243.6-24.05 242.93-24.2 242.25-24.35 241.5-24.35L241.5-24.35Q238.65-24.35 236.65-23.5 234.65-22.65 232.95-21.4L232.95-21.4 232.95-2.45 239.6-2.05 239.6 0 224.9 0ZM247.89 0L247.89-2.1 251.89-2.4 251.89-24.45 248.04-25.3 248.04-27.55 254.39-28.35 254.49-28.35 255.44-27.55 255.44-26.75 255.34-22.95 255.44-22.95Q255.54-23.05 256.76-24.48 257.99-25.9 260.41-27.2 262.84-28.5 265.29-28.5L265.29-28.5Q266.09-28.5 266.79-28.3L266.79-28.3 266.79-23.9Q266.59-24.05 265.91-24.2 265.24-24.35 264.49-24.35L264.49-24.35Q261.64-24.35 259.64-23.5 257.64-22.65 255.94-21.4L255.94-21.4 255.94-2.45 262.59-2.05 262.59 0 247.89 0ZM270.67-14.05Q270.67-18.4 272.5-21.7 274.32-25 277.3-26.75 280.27-28.5 283.52-28.5L283.52-28.5Q289.82-28.5 292.85-24.4 295.87-20.3 295.87-13.9L295.87-13.9Q295.87-9.55 294.05-6.25 292.22-2.95 289.25-1.2 286.27 0.55 283.02 0.55L283.02 0.55Q276.72 0.55 273.7-3.55 270.67-7.65 270.67-14.05L270.67-14.05ZM283.27-2.05Q287.12-2.05 289.22-5 291.32-7.95 291.32-13.6L291.32-13.6Q291.32-19 289.37-22.45 287.42-25.9 283.32-25.9L283.32-25.9Q279.47-25.9 277.35-22.95 275.22-20 275.22-14.35L275.22-14.35Q275.22-8.9 277.2-5.48 279.17-2.05 283.27-2.05L283.27-2.05ZM301.11 0L301.11-2.1 305.11-2.4 305.11-24.45 301.26-25.3 301.26-27.55 307.61-28.35 307.71-28.35 308.66-27.55 308.66-26.75 308.56-22.95 308.66-22.95Q308.76-23.05 309.98-24.48 311.21-25.9 313.63-27.2 316.06-28.5 318.51-28.5L318.51-28.5Q319.31-28.5 320.01-28.3L320.01-28.3 320.01-23.9Q319.81-24.05 319.13-24.2 318.46-24.35 317.71-24.35L317.71-24.35Q314.86-24.35 312.86-23.5 310.86-22.65 309.16-21.4L309.16-21.4 309.16-2.45 315.81-2.05 315.81 0 301.11 0Z" fill="#a20000" data-fill-palette-color="secondary"></path><path d="M333.64-2.6L333.64-34.45 329.64-35 329.64-37.15 335.69-37.15Q336.79-37.15 337.87-37.23 338.94-37.3 339.44-37.3L339.44-37.3Q342.04-37.5 344.44-37.5L344.44-37.5Q351.49-37.5 354.42-34.88 357.34-32.25 357.34-27L357.34-27Q357.34-23.05 355.44-20.15 353.54-17.25 350.29-15.73 347.04-14.2 343.04-14.2L343.04-14.2Q341.44-14.2 339.77-14.28 338.09-14.35 337.74-14.4L337.74-14.4 337.74-2.65 344.69-2.15 344.69 0 329.34 0 329.34-2.15 333.64-2.6ZM337.74-16.85Q338.99-16.65 343.14-16.65L343.14-16.65Q347.44-16.65 350.19-19.07 352.94-21.5 352.94-27L352.94-27Q352.94-31.35 350.59-33.23 348.24-35.1 343.19-35.1L343.19-35.1Q341.64-35.1 339.74-34.9L339.74-34.9Q338.24-34.8 337.74-34.8L337.74-34.8 337.74-16.85ZM361.67 0L361.67-2.1 365.67-2.4 365.67-24.45 361.82-25.3 361.82-27.55 368.17-28.35 368.27-28.35 369.22-27.55 369.22-26.75 369.12-22.95 369.22-22.95Q369.32-23.05 370.55-24.48 371.77-25.9 374.2-27.2 376.62-28.5 379.07-28.5L379.07-28.5Q379.87-28.5 380.57-28.3L380.57-28.3 380.57-23.9Q380.37-24.05 379.7-24.2 379.02-24.35 378.27-24.35L378.27-24.35Q375.42-24.35 373.42-23.5 371.42-22.65 369.72-21.4L369.72-21.4 369.72-2.45 376.37-2.05 376.37 0 361.67 0ZM384.46-14.05Q384.46-18.4 386.28-21.7 388.11-25 391.08-26.75 394.06-28.5 397.31-28.5L397.31-28.5Q403.61-28.5 406.63-24.4 409.66-20.3 409.66-13.9L409.66-13.9Q409.66-9.55 407.83-6.25 406.01-2.95 403.03-1.2 400.06 0.55 396.81 0.55L396.81 0.55Q390.51 0.55 387.48-3.55 384.46-7.65 384.46-14.05L384.46-14.05ZM397.06-2.05Q400.91-2.05 403.01-5 405.11-7.95 405.11-13.6L405.11-13.6Q405.11-19 403.16-22.45 401.21-25.9 397.11-25.9L397.11-25.9Q393.26-25.9 391.13-22.95 389.01-20 389.01-14.35L389.01-14.35Q389.01-8.9 390.98-5.48 392.96-2.05 397.06-2.05L397.06-2.05ZM412.29-38.25L412.29-40.1 419.59-40.95 419.69-40.95 420.64-40.25 420.64-25.05Q422.19-26.5 424.37-27.5 426.54-28.5 429.19-28.5L429.19-28.5Q432.14-28.5 434.62-27.05 437.09-25.6 438.62-22.55 440.14-19.5 440.14-14.9L440.14-14.9Q440.14-10.6 438.39-7.08 436.64-3.55 433.39-1.5 430.14 0.55 425.89 0.55L425.89 0.55Q422.79 0.55 419.99-0.1 417.19-0.75 416.59-1.35L416.59-1.35 416.59-37.8 412.29-38.25ZM427.54-25.45Q425.44-25.45 423.59-24.45 421.74-23.45 420.64-22.25L420.64-22.25 420.64-3.75Q420.99-2.95 422.62-2.48 424.24-2 426.24-2L426.24-2Q430.54-2 433.14-5.18 435.74-8.35 435.74-14.5L435.74-14.5Q435.74-20 433.42-22.73 431.09-25.45 427.54-25.45L427.54-25.45ZM445.48-7.3Q445.48-12.15 450.28-14.33 455.08-16.5 462.23-16.65L462.23-16.65 462.23-18.2Q462.23-20.75 461.7-22.23 461.18-23.7 459.88-24.38 458.58-25.05 456.23-25.05L456.23-25.05Q453.68-25.05 451.6-24.28 449.53-23.5 447.58-22.4L447.58-22.4 446.48-24.6Q447.03-25.1 448.78-26 450.53-26.9 452.78-27.6 455.03-28.3 457.13-28.3L457.13-28.3Q460.53-28.3 462.5-27.35 464.48-26.4 465.35-24.3 466.23-22.2 466.23-18.65L466.23-18.65 466.23-2.15 469.33-2.15 469.33-0.3Q466.58 0.45 464.68 0.45L464.68 0.45Q463.48 0.45 463.03 0.08 462.58-0.3 462.58-1.65L462.58-1.65 462.58-3.5Q460.78-1.9 458.65-0.68 456.53 0.55 453.83 0.55L453.83 0.55Q450.23 0.55 447.85-1.45 445.48-3.45 445.48-7.3L445.48-7.3ZM455.33-2.4Q456.73-2.4 458.68-3.3 460.63-4.2 462.23-5.45L462.23-5.45 462.23-14.3Q456.18-14.25 453.05-12.5 449.93-10.75 449.93-7.8L449.93-7.8Q449.93-4.95 451.38-3.68 452.83-2.4 455.33-2.4L455.33-2.4ZM471.11-38.25L471.11-40.1 478.41-40.95 478.51-40.95 479.46-40.25 479.46-25.05Q481.01-26.5 483.19-27.5 485.36-28.5 488.01-28.5L488.01-28.5Q490.96-28.5 493.44-27.05 495.91-25.6 497.44-22.55 498.96-19.5 498.96-14.9L498.96-14.9Q498.96-10.6 497.21-7.08 495.46-3.55 492.21-1.5 488.96 0.55 484.71 0.55L484.71 0.55Q481.61 0.55 478.81-0.1 476.01-0.75 475.41-1.35L475.41-1.35 475.41-37.8 471.11-38.25ZM486.36-25.45Q484.26-25.45 482.41-24.45 480.56-23.45 479.46-22.25L479.46-22.25 479.46-3.75Q479.81-2.95 481.44-2.48 483.06-2 485.06-2L485.06-2Q489.36-2 491.96-5.18 494.56-8.35 494.56-14.5L494.56-14.5Q494.56-20 492.24-22.73 489.91-25.45 486.36-25.45L486.36-25.45ZM509.85-33Q507.15-33 507.15-35.85L507.15-35.85Q507.15-37.3 508-38.23 508.85-39.15 510.3-39.15L510.3-39.15Q511.8-39.15 512.45-38.33 513.1-37.5 513.1-36.3L513.1-36.3Q513.1-34.75 512.27-33.88 511.45-33 509.9-33L509.9-33 509.85-33ZM508.25-2.55L508.25-24.45 504.35-25.3 504.35-27.55 511.2-28.35 511.3-28.35 512.3-27.55 512.3-2.5 516.65-2.15 516.65 0 503.85 0 503.85-2.15 508.25-2.55ZM524.78-2.55L524.78-37.8 520.53-38.25 520.53-40.1 527.83-40.95 527.88-40.95 528.83-40.3 528.83-2.5 533.53-2.15 533.53 0 520.38 0 520.38-2.15 524.78-2.55ZM543.47-33Q540.77-33 540.77-35.85L540.77-35.85Q540.77-37.3 541.62-38.23 542.47-39.15 543.92-39.15L543.92-39.15Q545.42-39.15 546.07-38.33 546.72-37.5 546.72-36.3L546.72-36.3Q546.72-34.75 545.89-33.88 545.07-33 543.52-33L543.52-33 543.47-33ZM541.87-2.55L541.87-24.45 537.97-25.3 537.97-27.55 544.82-28.35 544.92-28.35 545.92-27.55 545.92-2.5 550.27-2.15 550.27 0 537.47 0 537.47-2.15 541.87-2.55ZM562.95 0.55Q560.3 0.55 558.95-0.68 557.6-1.9 557.6-5.05L557.6-5.05 557.6-24.8 553.8-24.8 553.8-26.75Q556.3-27.3 556.7-27.55L556.7-27.55Q557.45-27.95 557.8-29.1L557.8-29.1Q558.1-29.85 558.6-31.8 559.1-33.75 559.35-34.85L559.35-34.85 561.65-34.85 561.65-27.75 570.5-27.75 570.5-24.8 561.65-24.8 561.65-8.6Q561.65-5.7 561.85-4.53 562.05-3.35 562.65-3 563.25-2.65 564.75-2.65L564.75-2.65Q566.2-2.65 568-3.05 569.8-3.45 570.7-3.9L570.7-3.9 571.35-2Q570.2-1.1 567.55-0.28 564.9 0.55 562.95 0.55L562.95 0.55ZM578.84 12.45Q578.14 12.45 577.41 12.35 576.69 12.25 576.39 12.1L576.39 12.1 576.39 8.4Q576.99 8.7 578.94 8.7L578.94 8.7Q580.49 8.7 581.76 8.08 583.04 7.45 584.39 5.55 585.74 3.65 587.04 0L587.04 0 584.84 0 575.29-25.05 572.94-25.7 572.94-27.75 583.99-27.75 583.99-25.7 579.94-25.1 585.19-9.8 587.79-1.65 590.29-9.85 594.99-25.1 591.49-25.7 591.49-27.75 601.09-27.75 601.09-25.7 598.49-25.1Q594.74-13.6 592.56-7.13 590.39-0.65 589.79 0.8L589.79 0.8Q588.04 5.2 586.69 7.58 585.34 9.95 583.49 11.2 581.64 12.45 578.84 12.45L578.84 12.45Z" fill="#0091cf" data-fill-palette-color="accent"></path><path d="M626.62 0.55Q621.27 0.55 617.42-1.85 613.57-4.25 611.57-8.6 609.57-12.95 609.57-18.75L609.57-18.75Q609.57-24.2 611.92-28.5 614.27-32.8 618.32-35.18 622.37-37.55 627.37-37.55L627.37-37.55Q629.92-37.55 632.3-37.15 634.67-36.75 636.12-36.4 637.57-36.05 637.92-35.95L637.92-35.95 637.52-27.8 634.92-27.8 633.82-33.6Q633.07-34.25 631.12-34.7 629.17-35.15 626.37-35.15L626.37-35.15Q622.92-35.15 620.17-33.27 617.42-31.4 615.85-27.8 614.27-24.2 614.27-19.2L614.27-19.2Q614.27-14.5 615.65-10.55 617.02-6.6 619.82-4.23 622.62-1.85 626.72-1.85L626.72-1.85Q629.57-1.85 631.17-2.33 632.77-2.8 633.87-3.7L633.87-3.7 635.87-8.4 638.32-8.05 637.07-1.35Q635.87-1.3 634.17-0.7L634.17-0.7Q632.37-0.1 630.72 0.23 629.07 0.55 626.62 0.55L626.62 0.55ZM643.25-7.3Q643.25-12.15 648.05-14.33 652.85-16.5 660-16.65L660-16.65 660-18.2Q660-20.75 659.48-22.23 658.95-23.7 657.65-24.38 656.35-25.05 654-25.05L654-25.05Q651.45-25.05 649.38-24.28 647.3-23.5 645.35-22.4L645.35-22.4 644.25-24.6Q644.8-25.1 646.55-26 648.3-26.9 650.55-27.6 652.8-28.3 654.9-28.3L654.9-28.3Q658.3-28.3 660.28-27.35 662.25-26.4 663.13-24.3 664-22.2 664-18.65L664-18.65 664-2.15 667.1-2.15 667.1-0.3Q664.35 0.45 662.45 0.45L662.45 0.45Q661.25 0.45 660.8 0.08 660.35-0.3 660.35-1.65L660.35-1.65 660.35-3.5Q658.55-1.9 656.43-0.68 654.3 0.55 651.6 0.55L651.6 0.55Q648 0.55 645.63-1.45 643.25-3.45 643.25-7.3L643.25-7.3ZM653.1-2.4Q654.5-2.4 656.45-3.3 658.4-4.2 660-5.45L660-5.45 660-14.3Q653.95-14.25 650.83-12.5 647.7-10.75 647.7-7.8L647.7-7.8Q647.7-4.95 649.15-3.68 650.6-2.4 653.1-2.4L653.1-2.4ZM675.39-2.55L675.39-37.8 671.14-38.25 671.14-40.1 678.44-40.95 678.49-40.95 679.44-40.3 679.44-2.5 684.14-2.15 684.14 0 670.99 0 670.99-2.15 675.39-2.55ZM687.67-13.7Q687.67-17.75 689.25-21.13 690.82-24.5 693.95-26.5 697.07-28.5 701.57-28.5L701.57-28.5Q703.52-28.5 705.37-28.03 707.22-27.55 708.57-27L708.57-27 708.37-19.85 705.87-19.85 704.82-24.65Q704.52-26.15 700.52-26.15L700.52-26.15Q696.62-26.15 694.3-23.15 691.97-20.15 691.97-14.95L691.97-14.95Q691.97-8.75 694.47-5.55 696.97-2.35 700.97-2.35L700.97-2.35Q703.07-2.35 705.05-3.05 707.02-3.75 708.32-4.65L708.32-4.65 709.12-3Q707.67-1.55 705.12-0.5 702.57 0.55 700.07 0.55L700.07 0.55Q696.12 0.55 693.32-1.33 690.52-3.2 689.1-6.43 687.67-9.65 687.67-13.7L687.67-13.7ZM737.06 0.45Q735.76 0.45 735.16 0 734.56-0.45 734.56-1.65L734.56-1.65 734.56-3.6Q732.71-1.95 730.21-0.7 727.71 0.55 725.21 0.55L725.21 0.55Q720.66 0.55 718.73-2 716.81-4.55 716.81-10.3L716.81-10.3 716.81-25 713.86-25.85 713.86-27.7 719.91-28.35 719.96-28.35 720.86-27.75 720.86-10.9Q720.86-7.75 721.31-5.98 721.76-4.2 722.96-3.35 724.16-2.5 726.46-2.5L726.46-2.5Q728.66-2.5 730.66-3.45 732.66-4.4 734.11-5.7L734.11-5.7 734.11-25 730.31-25.85 730.31-27.7 736.96-28.35 737.01-28.35 738.16-27.75 738.16-2.2 741.26-2.2 741.21-0.3Q740.96-0.25 739.76 0.1 738.56 0.45 737.06 0.45L737.06 0.45ZM750.14-2.55L750.14-37.8 745.89-38.25 745.89-40.1 753.19-40.95 753.24-40.95 754.19-40.3 754.19-2.5 758.89-2.15 758.89 0 745.74 0 745.74-2.15 750.14-2.55ZM763.28-7.3Q763.28-12.15 768.08-14.33 772.88-16.5 780.03-16.65L780.03-16.65 780.03-18.2Q780.03-20.75 779.5-22.23 778.98-23.7 777.68-24.38 776.38-25.05 774.03-25.05L774.03-25.05Q771.48-25.05 769.4-24.28 767.33-23.5 765.38-22.4L765.38-22.4 764.28-24.6Q764.83-25.1 766.58-26 768.33-26.9 770.58-27.6 772.83-28.3 774.93-28.3L774.93-28.3Q778.33-28.3 780.3-27.35 782.28-26.4 783.15-24.3 784.03-22.2 784.03-18.65L784.03-18.65 784.03-2.15 787.13-2.15 787.13-0.3Q784.38 0.45 782.48 0.45L782.48 0.45Q781.28 0.45 780.83 0.08 780.38-0.3 780.38-1.65L780.38-1.65 780.38-3.5Q778.58-1.9 776.45-0.68 774.33 0.55 771.63 0.55L771.63 0.55Q768.03 0.55 765.65-1.45 763.28-3.45 763.28-7.3L763.28-7.3ZM773.13-2.4Q774.53-2.4 776.48-3.3 778.43-4.2 780.03-5.45L780.03-5.45 780.03-14.3Q773.98-14.25 770.85-12.5 767.73-10.75 767.73-7.8L767.73-7.8Q767.73-4.95 769.18-3.68 770.63-2.4 773.13-2.4L773.13-2.4ZM799.96 0.55Q797.31 0.55 795.96-0.68 794.61-1.9 794.61-5.05L794.61-5.05 794.61-24.8 790.81-24.8 790.81-26.75Q793.31-27.3 793.71-27.55L793.71-27.55Q794.46-27.95 794.81-29.1L794.81-29.1Q795.11-29.85 795.61-31.8 796.11-33.75 796.36-34.85L796.36-34.85 798.66-34.85 798.66-27.75 807.51-27.75 807.51-24.8 798.66-24.8 798.66-8.6Q798.66-5.7 798.86-4.53 799.06-3.35 799.66-3 800.26-2.65 801.76-2.65L801.76-2.65Q803.21-2.65 805.01-3.05 806.81-3.45 807.71-3.9L807.71-3.9 808.36-2Q807.21-1.1 804.56-0.28 801.91 0.55 799.96 0.55L799.96 0.55ZM812.1-14.05Q812.1-18.4 813.92-21.7 815.75-25 818.72-26.75 821.7-28.5 824.95-28.5L824.95-28.5Q831.25-28.5 834.27-24.4 837.3-20.3 837.3-13.9L837.3-13.9Q837.3-9.55 835.47-6.25 833.65-2.95 830.67-1.2 827.7 0.55 824.45 0.55L824.45 0.55Q818.15 0.55 815.12-3.55 812.1-7.65 812.1-14.05L812.1-14.05ZM824.7-2.05Q828.55-2.05 830.65-5 832.75-7.95 832.75-13.6L832.75-13.6Q832.75-19 830.8-22.45 828.85-25.9 824.75-25.9L824.75-25.9Q820.9-25.9 818.77-22.95 816.65-20 816.65-14.35L816.65-14.35Q816.65-8.9 818.62-5.48 820.6-2.05 824.7-2.05L824.7-2.05ZM842.53 0L842.53-2.1 846.53-2.4 846.53-24.45 842.68-25.3 842.68-27.55 849.03-28.35 849.13-28.35 850.08-27.55 850.08-26.75 849.98-22.95 850.08-22.95Q850.18-23.05 851.41-24.48 852.63-25.9 855.06-27.2 857.48-28.5 859.93-28.5L859.93-28.5Q860.73-28.5 861.43-28.3L861.43-28.3 861.43-23.9Q861.23-24.05 860.56-24.2 859.88-24.35 859.13-24.35L859.13-24.35Q856.28-24.35 854.28-23.5 852.28-22.65 850.58-21.4L850.58-21.4 850.58-2.45 857.23-2.05 857.23 0 842.53 0Z" fill="#010c80" data-fill-palette-color="primary"></path></g></svg></g></svg></g></svg></g></svg></g></svg></g></svg></g></svg></g><g mask="url(#03e28d32-a0e3-4e95-979c-ab4a01c4704e)"><g transform="matrix(0.528448275862069, 0, 0, 0.528448275862069, 75.15999999999998, 0.9999999999999858)"><svg xmlns="http://www.w3.org/2000/svg" xmlns:xlink="http://www.w3.org/1999/xlink" version="1.1" x="0" y="0" viewBox="16 32 464 464" style="enable-background:new 0 0 512 512;" xml:space="preserve" height="464" width="464" class="icon-none" data-fill-palette-color="accent" id="none"><path d="M303.9 299.6c-3.1-7-10.1-11.6-17.8-11.6-10.8 0-19.5 8.7-19.5 19.5 0 2.1 0.3 4.2 1 6.2l19.6 58.8 31.4 47.1-13.3 8.9-29.1-43.7-66.6 11.1-0.5 0.3-0.1-0.2-52.5 8.8c-14.7 2.5-29.6-3.5-38.6-15.5l-47.5-63.3c-5.2-6.9-15.1-8.3-22-3.1-6.7 5.1-8.3 14.6-3.4 21.5 17.5 25.2 46.2 66.5 54.5 78.6 1 1.5 2.5 2.5 4.2 3.1l167.5 53.3c1.1 0.4 2.3 0.5 3.4 0.3L392 464.9v-83.4l-61.9-23.2L303.9 299.6z" fill="#0091cf" data-fill-palette-color="accent"></path><path d="M472 360h-24v64h-16v-64h-16c-4.4 0-8 3.6-8 8v104c0 4.4 3.6 8 8 8h56c4.4 0 8-3.6 8-8V368C480 363.6 476.4 360 472 360zM448 464h-16v-24h16V464z" fill="#0091cf" data-fill-palette-color="accent"></path><path d="M101.1 323.9l-10.5 2.1 40.2 53.6c5.4 7.2 14.3 10.8 23.1 9.3l9.1-1.5-37.6-53.7C120 325.9 110.4 322.1 101.1 323.9z" fill="#0091cf" data-fill-palette-color="accent"></path><path d="M200.2 381.2l-27.8-46.4c-5-8.5-14.8-13-24.5-11.3l-9 1.5 41.7 59.5L200.2 381.2z" fill="#0091cf" data-fill-palette-color="accent"></path><path d="M234.1 375.5l-21.8-39.2c-5.1-9.1-15.4-14-25.7-11.9l-1.7 0.3c0.4 0.6 0.8 1.2 1.1 1.8l31.1 51.8L234.1 375.5z" fill="#0091cf" data-fill-palette-color="accent"></path><rect x="16" y="392" width="16" height="56" fill="#0091cf" data-fill-palette-color="accent"></rect><rect x="48" y="432" width="16" height="40" fill="#0091cf" data-fill-palette-color="accent"></rect><rect x="80" y="464" width="16" height="32" fill="#0091cf" data-fill-palette-color="accent"></rect><path d="M326.1 224.4l35.2-93.7c-1-0.9-2-1.8-2.9-2.9L296 54.2l-33.4 88.9c-1 2.7-0.5 5.8 1.4 8L326.1 224.4zM304.6 122.3l15 5.6-5.6 15-15-5.6L304.6 122.3z" fill="#0091cf" data-fill-palette-color="accent"></path><path d="M376.6 136.4c-0.1 0-0.3 0-0.4 0L341 230.1l95-14.3c2.9-0.4 5.3-2.4 6.3-5.1l33.4-88.9-95.5 14.4C379.1 136.3 377.8 136.4 376.6 136.4zM432.9 144.8l15 5.6-5.6 15-15-5.6L432.9 144.8zM399.1 166.4l15 5.6-5.6 15-15-5.6L399.1 166.4zM382.3 211.3l-15-5.6 5.6-15 15 5.6L382.3 211.3z" fill="#0091cf" data-fill-palette-color="accent"></path><path d="M377.9 120.3l92.7-14L410 34.8c-1.5-1.8-3.7-2.8-6.1-2.8-0.4 0-0.8 0-1.2 0.1L310 46l60.6 71.5C372.4 119.7 375.1 120.7 377.9 120.3zM415.1 78.4l15 5.6-5.6 15-15-5.6L415.1 78.4zM393.6 44.6l15 5.6-5.6 15-15-5.6L393.6 44.6zM385.1 67.1l15 5.6-5.6 15-15-5.6L385.1 67.1zM376.7 89.6l15 5.6-5.6 15-15-5.6L376.7 89.6zM364.5 76.5l-15-5.6 5.6-15 15 5.6L364.5 76.5z" fill="#0091cf" data-fill-palette-color="accent"></path><path d="M128.5 175.1l61.9-59-83.1-19.8c-2.6-0.6-5.4 0.1-7.4 2l-62 58.7 83.1 20.1C123.8 177.7 126.5 176.9 128.5 175.1zM101.3 119.4l15.5-4.1 4.1 15.5-15.5 4.1L101.3 119.4zM109.6 150.3l15.5-4.1 4.1 15.5-15.5 4.1L109.6 150.3z" fill="#0091cf" data-fill-palette-color="accent"></path><path d="M59.6 256.4l83.9 20-22.3-83.2c-1.3-0.1-2.5-0.3-3.8-0.6l-84.7-20.5 21.1 78.6C54.5 253.5 56.7 255.7 59.6 256.4zM93.2 212.7l4.1 15.5-15.5 4.1-4.1-15.5L93.2 212.7z" fill="#0091cf" data-fill-palette-color="accent"></path><path d="M136.6 189l22.3 83.3 62.6-59.3c2.1-2 3-5 2.2-7.9l-21.1-78.6-63.1 60.1C138.6 187.5 137.6 188.3 136.6 189zM203.5 191.4l4.1 15.5-15.5 4.1-4.1-15.5L203.5 191.4zM195.2 160.5l4.1 15.5-15.5 4.1-4.1-15.5L195.2 160.5zM182.9 238.3l-15.5 4.1-4.1-15.5 15.5-4.1L182.9 238.3zM170.5 192l4.1 15.5-15.5 4.1-4.1-15.5L170.5 192z" fill="#0091cf" data-fill-palette-color="accent"></path></svg></g></g><mask id="03e28d32-a0e3-4e95-979c-ab4a01c4704e"><rect width="640" height="400" fill="white"></rect><g transform="matrix(1,0,0,1,0,79.1588533296378)"><svg viewBox="0 0 395.52 88.88229334072442" height="88.88229334072442" width="395.52"><g><svg viewBox="0 0 395.52 88.88229334072442" height="88.88229334072442" width="395.52"><g><svg viewBox="0 0 395.52 88.88229334072442" height="88.88229334072442" width="395.52"><g><svg viewBox="0 0 395.52 88.88229334072442" height="88.88229334072442" width="395.52"><g id="SvgjsG1407"><svg viewBox="0 0 395.52 88.88229334072442" height="88.88229334072442" width="395.52" id="SvgjsSvg1406"><g><svg viewBox="0 0 395.52 50.80808098987627" height="50.80808098987627" width="395.52"><g transform="matrix(1,0,0,1,0,0)"><svg width="395.52" viewBox="-3.099999964237213 -41.599998474121094 449.3600158691406 58.099998474121094" height="50.80808098987627" data-palette-color="#010c80"><g class="undefined-text-0" data-fill-palette-color="primary" id="SvgjsG1405"><path d="M26.95-35.85L32.4-37.4 32.4 0 26.95 0 26.95-18.8 16.15-18.8 16.15 0 10.7 0 10.7-34.85Q7.95-33.75 6.38-31.33 4.8-28.9 4.8-25.55L4.8-25.55Q4.8-23.8 5.03-22.75 5.25-21.7 5.6-21.05 5.95-20.4 6.35-20.1 6.75-19.8 7.1-19.65L7.1-19.65Q5.8-19.65 4.67-19.98 3.55-20.3 2.73-21.05 1.9-21.8 1.4-22.98 0.9-24.15 0.9-25.85L0.9-25.85Q0.9-28.2 2-30.33 3.1-32.45 4.95-34.05 6.8-35.65 9.18-36.58 11.55-37.5 14.1-37.5L14.1-37.5Q14.65-37.5 15.15-37.48 15.65-37.45 16.15-37.4L16.15-37.4 16.15-21.75 26.95-21.75 26.95-35.85ZM48.9-25L53.9-25 53.9-8Q53.9-7.5 53.95-6.75 54-6 54.22-5.28 54.45-4.55 54.9-4.03 55.35-3.5 56.15-3.5L56.15-3.5Q58.6-3.5 59.75-8.95L59.75-8.95 61.6-8.95Q61.05-5.8 60.2-3.98 59.35-2.15 58.4-1.2 57.45-0.25 56.45 0.03 55.45 0.3 54.65 0.3L54.65 0.3Q53.5 0.3 52.67-0.1 51.85-0.5 51.27-1.15 50.7-1.8 50.35-2.65 50-3.5 49.8-4.4L49.8-4.4Q48.85-1.95 47.3-0.83 45.75 0.3 44.05 0.3L44.05 0.3Q42.6 0.3 41.3-0.1 40-0.5 39.05-1.43 38.1-2.35 37.55-3.83 37-5.3 37-7.45L37-7.45 37-25 42-25 42-8Q42-5.55 42.85-4.53 43.7-3.5 45-3.5L45-3.5Q45.7-3.5 46.4-3.88 47.1-4.25 47.65-4.95 48.2-5.65 48.55-6.65 48.9-7.65 48.9-8.95L48.9-8.95 48.9-25ZM59.7-25L64.7-25 64.7-21.55Q66-23.95 67.45-24.6 68.9-25.25 70.2-25.25L70.2-25.25Q71.5-25.25 72.47-24.9 73.45-24.55 74.15-23.95 74.85-23.35 75.32-22.55 75.8-21.75 76.1-20.8L76.1-20.8Q76.8-22.3 77.55-23.18 78.3-24.05 79.05-24.53 79.8-25 80.52-25.13 81.25-25.25 81.85-25.25L81.85-25.25Q84.1-25.25 85.47-24.4 86.85-23.55 87.55-22.23 88.25-20.9 88.47-19.33 88.7-17.75 88.7-16.3L88.7-16.3Q88.7-15.4 88.65-14.33 88.6-13.25 88.55-12.13 88.5-11 88.45-9.88 88.4-8.75 88.4-7.8L88.4-7.8Q88.4-7.4 88.45-6.68 88.5-5.95 88.7-5.25 88.9-4.55 89.35-4.03 89.8-3.5 90.65-3.5L90.65-3.5Q91.8-3.5 92.72-4.8 93.65-6.1 94.25-8.95L94.25-8.95 96.1-8.95Q95.55-5.8 94.7-3.98 93.85-2.15 92.9-1.2 91.95-0.25 91 0.03 90.05 0.3 89.25 0.3L89.25 0.3Q87.65 0.3 86.55-0.33 85.45-0.95 84.75-2 84.05-3.05 83.72-4.45 83.4-5.85 83.4-7.35L83.4-7.35Q83.4-7.8 83.42-9.03 83.45-10.25 83.47-11.65 83.5-13.05 83.52-14.3 83.55-15.55 83.55-16.05L83.55-16.05Q83.55-17.65 83.3-18.7 83.05-19.75 82.6-20.35 82.15-20.95 81.57-21.2 81-21.45 80.35-21.45L80.35-21.45Q78.8-21.45 77.82-20.2 76.85-18.95 76.45-16L76.45-16 76.45 0 71.45 0 71.45-16.7Q71.45-17.6 71.37-18.45 71.3-19.3 71-19.98 70.7-20.65 70.15-21.05 69.6-21.45 68.65-21.45L68.65-21.45Q67.05-21.45 66.22-20.13 65.4-18.8 64.7-16L64.7-16 64.7 0 59.7 0 59.7-25ZM107.79-25L112.79-25 112.79-8Q112.79-7.5 112.84-6.75 112.89-6 113.12-5.28 113.34-4.55 113.79-4.03 114.24-3.5 115.04-3.5L115.04-3.5Q117.49-3.5 118.64-8.95L118.64-8.95 120.49-8.95Q119.94-5.8 119.09-3.98 118.24-2.15 117.29-1.2 116.34-0.25 115.34 0.03 114.34 0.3 113.54 0.3L113.54 0.3Q112.39 0.3 111.57-0.1 110.74-0.5 110.17-1.15 109.59-1.8 109.24-2.65 108.89-3.5 108.69-4.45L108.69-4.45Q107.94-2.5 106.27-1.1 104.59 0.3 102.19 0.3L102.19 0.3Q100.69 0.3 99.17-0.3 97.64-0.9 96.42-2.27 95.19-3.65 94.42-5.83 93.64-8 93.64-11.15L93.64-11.15Q93.64-13.45 94.17-15.95 94.69-18.45 95.84-20.5 96.99-22.55 98.79-23.9 100.59-25.25 103.14-25.25L103.14-25.25Q103.74-25.25 104.42-25.13 105.09-25 105.72-24.7 106.34-24.4 106.89-23.88 107.44-23.35 107.79-22.6L107.79-22.6 107.79-25ZM103.44-3.5L103.44-3.5Q104.19-3.5 104.97-3.93 105.74-4.35 106.37-5.08 106.99-5.8 107.39-6.8 107.79-7.8 107.79-8.95L107.79-8.95 107.79-20.35Q107.44-21.15 106.72-21.83 105.99-22.5 104.84-22.5L104.84-22.5Q103.24-22.5 102.09-21.43 100.94-20.35 100.24-18.73 99.54-17.1 99.22-15.18 98.89-13.25 98.89-11.5L98.89-11.5Q98.89-7.2 100.07-5.35 101.24-3.5 103.44-3.5ZM118.59-25L123.59-25 123.59-21.2Q124.34-22.55 125.12-23.38 125.89-24.2 126.69-24.6 127.49-25 128.22-25.13 128.94-25.25 129.59-25.25L129.59-25.25Q131.84-25.25 133.22-24.4 134.59-23.55 135.29-22.23 135.99-20.9 136.22-19.33 136.44-17.75 136.44-16.3L136.44-16.3Q136.44-15.4 136.39-14.33 136.34-13.25 136.29-12.13 136.24-11 136.19-9.88 136.14-8.75 136.14-7.8L136.14-7.8Q136.14-7.4 136.19-6.68 136.24-5.95 136.44-5.25 136.64-4.55 137.09-4.03 137.54-3.5 138.39-3.5L138.39-3.5Q139.54-3.5 140.47-4.8 141.39-6.1 141.99-8.95L141.99-8.95 143.84-8.95Q143.29-5.8 142.44-3.98 141.59-2.15 140.64-1.2 139.69-0.25 138.74 0.03 137.79 0.3 136.99 0.3L136.99 0.3Q135.39 0.3 134.29-0.33 133.19-0.95 132.49-2 131.79-3.05 131.47-4.45 131.14-5.85 131.14-7.35L131.14-7.35Q131.14-7.8 131.17-9.03 131.19-10.25 131.22-11.65 131.24-13.05 131.27-14.3 131.29-15.55 131.29-16.05L131.29-16.05Q131.29-17.65 131.04-18.7 130.79-19.75 130.34-20.35 129.89-20.95 129.32-21.2 128.74-21.45 128.09-21.45L128.09-21.45Q126.54-21.45 125.42-20.2 124.29-18.95 123.59-16L123.59-16 123.59 0 118.59 0 118.59-25Z" fill="#010c80" data-fill-palette-color="primary" stroke-width="7" stroke="black" stroke-linejoin="round"></path><path d="M168.64-9L169.89-8.5Q169.19-6.25 167.84-4.5 166.49-2.75 164.69-1.55 162.89-0.35 160.79 0.28 158.69 0.9 156.54 0.9L156.54 0.9Q153.69 0.9 151.67-0.13 149.64-1.15 148.37-2.75 147.09-4.35 146.49-6.38 145.89-8.4 145.89-10.45L145.89-10.45Q145.89-14.15 147.67-16.85 149.44-19.55 152.64-20.85L152.64-20.85Q150.24-22.35 149.19-24.3 148.14-26.25 148.14-28.4L148.14-28.4Q148.14-30.05 148.74-31.7 149.34-33.35 150.59-34.65 151.84-35.95 153.67-36.77 155.49-37.6 157.99-37.6L157.99-37.6Q159.34-37.6 160.72-37.3 162.09-37 163.19-36.27 164.29-35.55 164.97-34.33 165.64-33.1 165.64-31.25L165.64-31.25Q165.64-29.35 164.89-28.25 164.14-27.15 162.89-27.15L162.89-27.15Q161.54-27.15 160.24-28.5L160.24-28.5Q160.94-28.8 161.62-29.73 162.29-30.65 162.29-32.1L162.29-32.1Q162.29-33.05 161.94-33.73 161.59-34.4 161.02-34.85 160.44-35.3 159.74-35.5 159.04-35.7 158.29-35.7L158.29-35.7Q156.94-35.7 155.89-35.1 154.84-34.5 154.14-33.52 153.44-32.55 153.06-31.33 152.69-30.1 152.69-28.85L152.69-28.85Q152.69-28.3 152.81-27.18 152.94-26.05 153.52-24.83 154.09-23.6 155.22-22.48 156.34-21.35 158.29-20.9L158.29-20.9Q154.99-20.15 153.22-17.53 151.44-14.9 151.44-11.3L151.44-11.3Q151.44-7.7 153.37-5.38 155.29-3.05 159.29-3.05L159.29-3.05Q161.09-3.05 162.62-3.53 164.14-4 165.32-4.83 166.49-5.65 167.34-6.73 168.19-7.8 168.64-9L168.64-9ZM168.49-25L173.49-25 173.49-20.8Q174.09-21.7 174.66-22.5 175.24-23.3 175.94-23.9 176.64-24.5 177.49-24.88 178.34-25.25 179.39-25.25L179.39-25.25Q181.09-25.25 181.89-24.38 182.69-23.5 182.69-22.25L182.69-22.25Q182.69-21.5 182.44-21 182.19-20.5 181.84-20.2 181.49-19.9 181.09-19.78 180.69-19.65 180.39-19.65L180.39-19.65Q179.94-19.65 179.66-19.85 179.39-20.05 179.11-20.28 178.84-20.5 178.49-20.7 178.14-20.9 177.59-20.9L177.59-20.9Q176.44-20.9 175.39-20.1 174.34-19.3 173.49-18.4L173.49-18.4 173.49 0 168.49 0 168.49-25ZM185.29-25L190.29-25 190.29-20.8Q190.89-21.7 191.46-22.5 192.04-23.3 192.74-23.9 193.44-24.5 194.29-24.88 195.14-25.25 196.19-25.25L196.19-25.25Q197.89-25.25 198.69-24.38 199.49-23.5 199.49-22.25L199.49-22.25Q199.49-21.5 199.24-21 198.99-20.5 198.64-20.2 198.29-19.9 197.89-19.78 197.49-19.65 197.19-19.65L197.19-19.65Q196.74-19.65 196.46-19.85 196.19-20.05 195.91-20.28 195.64-20.5 195.29-20.7 194.94-20.9 194.39-20.9L194.39-20.9Q193.24-20.9 192.19-20.1 191.14-19.3 190.29-18.4L190.29-18.4 190.29 0 185.29 0 185.29-25ZM211.23-25.25L211.23-25.25Q213.18-25.25 214.58-24.65 215.98-24.05 216.88-22.98 217.78-21.9 218.31-20.45 218.83-19 219.08-17.35L219.08-17.35 219.38-17.35Q221.48-17.35 223.23-18.2 224.98-19.05 226.23-20.35L226.23-20.35 226.98-19Q225.98-17.4 223.81-16.35 221.63-15.3 219.33-14.9L219.33-14.9Q219.33-14.4 219.36-13.9 219.38-13.4 219.38-12.85L219.38-12.85Q219.38-6.7 217.13-3.2 214.88 0.3 210.83 0.3L210.83 0.3Q209.18 0.3 207.51-0.3 205.83-0.9 204.48-2.3 203.13-3.7 202.31-5.9 201.48-8.1 201.48-11.35L201.48-11.35Q201.48-13.55 201.96-16 202.43-18.45 203.56-20.5 204.68-22.55 206.56-23.9 208.43-25.25 211.23-25.25ZM211.73-3.5L211.73-3.5Q214.38-3.5 215.63-6.13 216.88-8.75 216.88-13.55L216.88-13.55Q216.88-13.85 216.88-14.15 216.88-14.45 216.83-14.75L216.83-14.75Q215.38-14.85 214.76-15.4 214.13-15.95 214.13-17.25L214.13-17.25Q214.13-18.4 214.63-18.88 215.13-19.35 216.13-19.4L216.13-19.4Q215.53-21.15 214.61-21.83 213.68-22.5 212.53-22.5L212.53-22.5Q210.98-22.5 209.91-21.48 208.83-20.45 208.16-18.85 207.48-17.25 207.18-15.33 206.88-13.4 206.88-11.55L206.88-11.55Q206.88-9.1 207.33-7.55 207.78-6 208.48-5.1 209.18-4.2 210.03-3.85 210.88-3.5 211.73-3.5ZM223.03-25L228.03-25 228.03-20.8Q228.63-21.7 229.21-22.5 229.78-23.3 230.48-23.9 231.18-24.5 232.03-24.88 232.88-25.25 233.93-25.25L233.93-25.25Q235.63-25.25 236.43-24.38 237.23-23.5 237.23-22.25L237.23-22.25Q237.23-21.5 236.98-21 236.73-20.5 236.38-20.2 236.03-19.9 235.63-19.78 235.23-19.65 234.93-19.65L234.93-19.65Q234.48-19.65 234.21-19.85 233.93-20.05 233.66-20.28 233.38-20.5 233.03-20.7 232.68-20.9 232.13-20.9L232.13-20.9Q230.98-20.9 229.93-20.1 228.88-19.3 228.03-18.4L228.03-18.4 228.03 0 223.03 0 223.03-25Z" fill="#a20000" data-fill-palette-color="secondary" stroke-width="7" stroke="black" stroke-linejoin="round"></path><path d="M248.83-32.05L254.23-32.8 254.23-15.8Q256.43-15.8 258.01-16.73 259.58-17.65 260.58-19.1 261.58-20.55 262.06-22.38 262.53-24.2 262.53-26L262.53-26Q262.53-27.6 262.21-29.3 261.88-31 260.83-32.43 259.78-33.85 257.83-34.77 255.88-35.7 252.63-35.7L252.63-35.7Q250.43-35.7 248.48-35.02 246.53-34.35 245.11-33.08 243.68-31.8 242.86-29.93 242.03-28.05 242.03-25.6L242.03-25.6Q242.03-24.05 242.28-23 242.53-21.95 242.88-21.25 243.23-20.55 243.58-20.18 243.93-19.8 244.13-19.65L244.13-19.65Q241.33-19.65 239.73-21.05 238.13-22.45 238.13-25.7L238.13-25.7Q238.13-28.1 239.38-30.23 240.63-32.35 242.73-33.98 244.83-35.6 247.58-36.55 250.33-37.5 253.38-37.5L253.38-37.5Q256.68-37.5 259.28-36.68 261.88-35.85 263.63-34.38 265.38-32.9 266.31-30.95 267.23-29 267.23-26.75L267.23-26.75Q267.23-24.65 266.48-22.43 265.73-20.2 264.23-18.4 262.73-16.6 260.51-15.43 258.28-14.25 255.33-14.25L255.33-14.25 254.23-14.25 254.23 0 248.83 0 248.83-32.05ZM269.58-25L274.58-25 274.58-20.8Q275.18-21.7 275.75-22.5 276.33-23.3 277.03-23.9 277.73-24.5 278.58-24.88 279.43-25.25 280.48-25.25L280.48-25.25Q282.18-25.25 282.98-24.38 283.78-23.5 283.78-22.25L283.78-22.25Q283.78-21.5 283.53-21 283.28-20.5 282.93-20.2 282.58-19.9 282.18-19.78 281.78-19.65 281.48-19.65L281.48-19.65Q281.03-19.65 280.75-19.85 280.48-20.05 280.2-20.28 279.93-20.5 279.58-20.7 279.23-20.9 278.68-20.9L278.68-20.9Q277.53-20.9 276.48-20.1 275.43-19.3 274.58-18.4L274.58-18.4 274.58 0 269.58 0 269.58-25ZM295.53-25.25L295.53-25.25Q297.47-25.25 298.87-24.65 300.28-24.05 301.18-22.98 302.07-21.9 302.6-20.45 303.12-19 303.37-17.35L303.37-17.35 303.67-17.35Q305.78-17.35 307.53-18.2 309.28-19.05 310.53-20.35L310.53-20.35 311.28-19Q310.28-17.4 308.1-16.35 305.92-15.3 303.62-14.9L303.62-14.9Q303.62-14.4 303.65-13.9 303.67-13.4 303.67-12.85L303.67-12.85Q303.67-6.7 301.42-3.2 299.18 0.3 295.12 0.3L295.12 0.3Q293.47 0.3 291.8-0.3 290.12-0.9 288.78-2.3 287.43-3.7 286.6-5.9 285.78-8.1 285.78-11.35L285.78-11.35Q285.78-13.55 286.25-16 286.72-18.45 287.85-20.5 288.97-22.55 290.85-23.9 292.72-25.25 295.53-25.25ZM296.03-3.5L296.03-3.5Q298.68-3.5 299.93-6.13 301.18-8.75 301.18-13.55L301.18-13.55Q301.18-13.85 301.18-14.15 301.18-14.45 301.12-14.75L301.12-14.75Q299.68-14.85 299.05-15.4 298.43-15.95 298.43-17.25L298.43-17.25Q298.43-18.4 298.93-18.88 299.43-19.35 300.43-19.4L300.43-19.4Q299.82-21.15 298.9-21.83 297.97-22.5 296.82-22.5L296.82-22.5Q295.28-22.5 294.2-21.48 293.12-20.45 292.45-18.85 291.78-17.25 291.47-15.33 291.18-13.4 291.18-11.55L291.18-11.55Q291.18-9.1 291.62-7.55 292.07-6 292.78-5.1 293.47-4.2 294.32-3.85 295.18-3.5 296.03-3.5ZM307.32-8.95L307.37-34.3 312.37-35 312.37-23.15Q313.22-24 314.37-24.55 315.52-25.1 317.12-25.1L317.12-25.1Q318.47-25.1 319.92-24.63 321.37-24.15 322.62-22.95 323.87-21.75 324.67-19.65 325.47-17.55 325.47-14.3L325.47-14.3Q325.47-11.45 324.8-8.8 324.12-6.15 322.75-4.13 321.37-2.1 319.32-0.9 317.27 0.3 314.52 0.3L314.52 0.3Q312.97 0.3 311.65-0.18 310.32-0.65 309.37-1.73 308.42-2.8 307.87-4.58 307.32-6.35 307.32-8.95L307.32-8.95ZM321.02-13.15L321.02-13.15Q321.02-15.1 320.67-16.8 320.32-18.5 319.65-19.78 318.97-21.05 318-21.78 317.02-22.5 315.77-22.5L315.77-22.5Q314.77-22.5 313.92-22.03 313.07-21.55 312.37-20.8L312.37-20.8 312.37-7.65Q312.37-3.15 315.32-3.15L315.32-3.15Q316.72-3.15 317.8-3.98 318.87-4.8 319.6-6.2 320.32-7.6 320.67-9.4 321.02-11.2 321.02-13.15ZM341.67-25L346.67-25 346.67-8Q346.67-7.5 346.72-6.75 346.77-6 347-5.28 347.22-4.55 347.67-4.03 348.12-3.5 348.92-3.5L348.92-3.5Q351.37-3.5 352.52-8.95L352.52-8.95 354.37-8.95Q353.82-5.8 352.97-3.98 352.12-2.15 351.17-1.2 350.22-0.25 349.22 0.03 348.22 0.3 347.42 0.3L347.42 0.3Q346.27 0.3 345.45-0.1 344.62-0.5 344.05-1.15 343.47-1.8 343.12-2.65 342.77-3.5 342.57-4.45L342.57-4.45Q341.82-2.5 340.15-1.1 338.47 0.3 336.07 0.3L336.07 0.3Q334.57 0.3 333.05-0.3 331.52-0.9 330.3-2.27 329.07-3.65 328.3-5.83 327.52-8 327.52-11.15L327.52-11.15Q327.52-13.45 328.05-15.95 328.57-18.45 329.72-20.5 330.87-22.55 332.67-23.9 334.47-25.25 337.02-25.25L337.02-25.25Q337.62-25.25 338.3-25.13 338.97-25 339.6-24.7 340.22-24.4 340.77-23.88 341.32-23.35 341.67-22.6L341.67-22.6 341.67-25ZM337.32-3.5L337.32-3.5Q338.07-3.5 338.85-3.93 339.62-4.35 340.25-5.08 340.87-5.8 341.27-6.8 341.67-7.8 341.67-8.95L341.67-8.95 341.67-20.35Q341.32-21.15 340.6-21.83 339.87-22.5 338.72-22.5L338.72-22.5Q337.12-22.5 335.97-21.43 334.82-20.35 334.12-18.73 333.42-17.1 333.1-15.18 332.77-13.25 332.77-11.5L332.77-11.5Q332.77-7.2 333.95-5.35 335.12-3.5 337.32-3.5ZM352.47-8.95L352.52-34.3 357.52-35 357.52-23.15Q358.37-24 359.52-24.55 360.67-25.1 362.27-25.1L362.27-25.1Q363.62-25.1 365.07-24.63 366.52-24.15 367.77-22.95 369.02-21.75 369.82-19.65 370.62-17.55 370.62-14.3L370.62-14.3Q370.62-11.45 369.94-8.8 369.27-6.15 367.89-4.13 366.52-2.1 364.47-0.9 362.42 0.3 359.67 0.3L359.67 0.3Q358.12 0.3 356.79-0.18 355.47-0.65 354.52-1.73 353.57-2.8 353.02-4.58 352.47-6.35 352.47-8.95L352.47-8.95ZM366.17-13.15L366.17-13.15Q366.17-15.1 365.82-16.8 365.47-18.5 364.79-19.78 364.12-21.05 363.14-21.78 362.17-22.5 360.92-22.5L360.92-22.5Q359.92-22.5 359.07-22.03 358.22-21.55 357.52-20.8L357.52-20.8 357.52-7.65Q357.52-3.15 360.47-3.15L360.47-3.15Q361.87-3.15 362.94-3.98 364.02-4.8 364.74-6.2 365.47-7.6 365.82-9.4 366.17-11.2 366.17-13.15ZM373.42-25L378.42-25 378.42-8Q378.42-7.5 378.47-6.75 378.51-6 378.74-5.28 378.97-4.55 379.42-4.03 379.87-3.5 380.67-3.5L380.67-3.5Q383.12-3.5 384.26-8.95L384.26-8.95 386.12-8.95Q385.57-5.8 384.72-3.98 383.87-2.15 382.92-1.2 381.97-0.25 380.97 0.03 379.97 0.3 379.17 0.3L379.17 0.3Q377.42 0.3 376.32-0.38 375.22-1.05 374.57-2.1 373.92-3.15 373.67-4.45 373.42-5.75 373.42-6.95L373.42-6.95 373.42-25ZM372.51-32.2L372.51-32.2Q372.51-33.55 373.47-34.55 374.42-35.55 375.82-35.55L375.82-35.55Q377.17-35.55 378.17-34.55 379.17-33.55 379.17-32.2L379.17-32.2Q379.17-30.8 378.17-29.85 377.17-28.9 375.82-28.9L375.82-28.9Q374.42-28.9 373.47-29.85 372.51-30.8 372.51-32.2ZM384.26-34.3L389.26-35 389.26-8Q389.26-7.5 389.31-6.75 389.36-6 389.59-5.28 389.81-4.55 390.26-4.03 390.71-3.5 391.51-3.5L391.51-3.5Q393.96-3.5 395.11-8.95L395.11-8.95 396.96-8.95Q396.41-5.8 395.56-3.98 394.71-2.15 393.76-1.2 392.81-0.25 391.81 0.03 390.81 0.3 390.01 0.3L390.01 0.3Q388.26 0.3 387.16-0.38 386.06-1.05 385.41-2.1 384.76-3.15 384.51-4.45 384.26-5.75 384.26-6.95L384.26-6.95 384.26-34.3ZM395.06-25L400.06-25 400.06-8Q400.06-7.5 400.11-6.75 400.16-6 400.39-5.28 400.61-4.55 401.06-4.03 401.51-3.5 402.31-3.5L402.31-3.5Q404.76-3.5 405.91-8.95L405.91-8.95 407.76-8.95Q407.21-5.8 406.36-3.98 405.51-2.15 404.56-1.2 403.61-0.25 402.61 0.03 401.61 0.3 400.81 0.3L400.81 0.3Q399.06 0.3 397.96-0.38 396.86-1.05 396.21-2.1 395.56-3.15 395.31-4.45 395.06-5.75 395.06-6.95L395.06-6.95 395.06-25ZM394.16-32.2L394.16-32.2Q394.16-33.55 395.11-34.55 396.06-35.55 397.46-35.55L397.46-35.55Q398.81-35.55 399.81-34.55 400.81-33.55 400.81-32.2L400.81-32.2Q400.81-30.8 399.81-29.85 398.81-28.9 397.46-28.9L397.46-28.9Q396.06-28.9 395.11-29.85 394.16-30.8 394.16-32.2ZM405.91-31.9L410.91-32.6 410.91-25 414.76-25 414.76-23.25 410.91-23.25 410.91-8Q410.91-7.4 410.96-6.63 411.01-5.85 411.23-5.15 411.46-4.45 411.93-3.98 412.41-3.5 413.26-3.5L413.26-3.5Q414.61-3.5 415.83-4.85 417.06-6.2 417.76-8.95L417.76-8.95 419.61-8.95Q418.76-5.8 417.78-3.98 416.81-2.15 415.76-1.2 414.71-0.25 413.68 0.03 412.66 0.3 411.81 0.3L411.81 0.3Q410.01 0.3 408.86-0.38 407.71-1.05 407.06-2.1 406.41-3.15 406.16-4.42 405.91-5.7 405.91-6.95L405.91-6.95 405.91-23.25 404.21-23.25 404.21-25 405.91-25 405.91-31.9ZM429.56-25L434.56-25 434.56-1.05Q435.81-1.45 436.78-1.95 437.76-2.45 438.48-3.3 439.21-4.15 439.68-5.5 440.16-6.85 440.41-8.95L440.41-8.95 442.26-8.95Q441.86-6.3 441.23-4.63 440.61-2.95 439.68-1.93 438.76-0.9 437.48-0.33 436.21 0.25 434.56 0.75L434.56 0.75 434.56 3.95Q434.56 6.3 434.06 7.93 433.56 9.55 432.68 10.58 431.81 11.6 430.68 12.05 429.56 12.5 428.31 12.5L428.31 12.5Q425.81 12.5 424.41 11.08 423.01 9.65 423.01 7.6L423.01 7.6Q423.01 6.3 423.58 5.25 424.16 4.2 425.08 3.33 426.01 2.45 427.18 1.78 428.36 1.1 429.56 0.6L429.56 0.6 429.56-2.55Q428.56-1.1 427.28-0.4 426.01 0.3 424.71 0.3L424.71 0.3Q423.26 0.3 421.96-0.1 420.66-0.5 419.71-1.43 418.76-2.35 418.21-3.83 417.66-5.3 417.66-7.45L417.66-7.45 417.66-25 422.66-25 422.66-8Q422.66-5.55 423.51-4.53 424.36-3.5 425.66-3.5L425.66-3.5Q426.36-3.5 427.06-3.85 427.76-4.2 428.31-4.88 428.86-5.55 429.21-6.5 429.56-7.45 429.56-8.7L429.56-8.7 429.56-25ZM427.36 9.9L427.36 9.9Q428.71 9.9 429.13 8.88 429.56 7.85 429.56 6.1L429.56 6.1 429.56 2.6Q427.06 3.75 426.01 4.88 424.96 6 424.96 7.4L424.96 7.4Q424.96 8.55 425.58 9.22 426.21 9.9 427.36 9.9Z" fill="#0091cf" data-fill-palette-color="accent" stroke-width="7" stroke="black" stroke-linejoin="round"></path></g></svg></g></svg></g><g transform="matrix(1,0,0,1,3.5,61.33221204488639)"><svg viewBox="0 0 388.52 27.550081295838023" height="27.550081295838023" width="388.52"><g transform="matrix(1,0,0,1,0,0)"><svg width="388.52" viewBox="-1.2999999523162842 -44.95000076293945 866.72998046875 61.400001525878906" height="27.550081295838023" data-palette-color="#a20000"><g class="undefined-text-1" data-fill-palette-color="secondary" id="SvgjsG1404"><path d="M6.95-2.6L6.95-34.45 2.85-35 2.85-37.15 15.4-37.15 15.4-35 11.05-34.45 11.05-20.4 30.15-20.4 30.15-34.45 26-35 26-37.15 38.4-37.15 38.4-35 34.3-34.45 34.3-2.6 38.4-2.15 38.4 0 25.95 0 25.95-2.15 30.15-2.6 30.15-17.75 11.05-17.75 11.05-2.6 15.45-2.15 15.45 0 2.7 0 2.7-2.15 6.95-2.6ZM66.83 0.45Q65.53 0.45 64.93 0 64.33-0.45 64.33-1.65L64.33-1.65 64.33-3.6Q62.48-1.95 59.98-0.7 57.48 0.55 54.98 0.55L54.98 0.55Q50.43 0.55 48.51-2 46.58-4.55 46.58-10.3L46.58-10.3 46.58-25 43.63-25.85 43.63-27.7 49.68-28.35 49.73-28.35 50.63-27.75 50.63-10.9Q50.63-7.75 51.08-5.98 51.53-4.2 52.73-3.35 53.93-2.5 56.23-2.5L56.23-2.5Q58.43-2.5 60.43-3.45 62.43-4.4 63.88-5.7L63.88-5.7 63.88-25 60.08-25.85 60.08-27.7 66.73-28.35 66.78-28.35 67.93-27.75 67.93-2.2 71.03-2.2 70.98-0.3Q70.73-0.25 69.53 0.1 68.33 0.45 66.83 0.45L66.83 0.45ZM75.77 0L75.77-2.15 78.97-2.55 78.97-24.45 75.12-25.3 75.12-27.55 81.47-28.35 82.57-27.55 82.57-25.35 82.52-24.1Q84.37-25.7 87.37-27.05 90.37-28.4 92.82-28.4L92.82-28.4Q95.52-28.4 97.14-27.5 98.77-26.6 99.62-24.7L99.62-24.7Q101.17-26 104.14-27.2 107.12-28.4 109.62-28.4L109.62-28.4Q112.77-28.4 114.49-27.2 116.22-26 116.92-23.5 117.62-21 117.62-16.75L117.62-16.75 117.62-2.55 121.42-2.15 121.42 0 110.22 0 110.22-2.15 113.62-2.55 113.62-16.6Q113.62-19.75 113.17-21.6 112.72-23.45 111.42-24.4 110.12-25.35 107.62-25.35L107.62-25.35Q105.77-25.35 103.74-24.53 101.72-23.7 100.27-22.65L100.27-22.65Q100.77-20.35 100.77-16.65L100.77-16.65 100.77-2.55 104.57-2.15 104.57 0 93.12 0 93.12-2.15 96.72-2.55 96.72-16.7Q96.72-19.9 96.34-21.7 95.97-23.5 94.77-24.4 93.57-25.3 91.22-25.3L91.22-25.3Q89.27-25.3 86.99-24.33 84.72-23.35 83.02-22L83.02-22 83.02-2.55 86.57-2.15 86.57 0 75.77 0ZM125.8-7.3Q125.8-12.15 130.6-14.33 135.4-16.5 142.55-16.65L142.55-16.65 142.55-18.2Q142.55-20.75 142.03-22.23 141.5-23.7 140.2-24.38 138.9-25.05 136.55-25.05L136.55-25.05Q134-25.05 131.93-24.28 129.85-23.5 127.9-22.4L127.9-22.4 126.8-24.6Q127.35-25.1 129.1-26 130.85-26.9 133.1-27.6 135.35-28.3 137.45-28.3L137.45-28.3Q140.85-28.3 142.83-27.35 144.8-26.4 145.68-24.3 146.55-22.2 146.55-18.65L146.55-18.65 146.55-2.15 149.65-2.15 149.65-0.3Q146.9 0.45 145 0.45L145 0.45Q143.8 0.45 143.35 0.08 142.9-0.3 142.9-1.65L142.9-1.65 142.9-3.5Q141.1-1.9 138.98-0.68 136.85 0.55 134.15 0.55L134.15 0.55Q130.55 0.55 128.18-1.45 125.8-3.45 125.8-7.3L125.8-7.3ZM135.65-2.4Q137.05-2.4 139-3.3 140.95-4.2 142.55-5.45L142.55-5.45 142.55-14.3Q136.5-14.25 133.38-12.5 130.25-10.75 130.25-7.8L130.25-7.8Q130.25-4.95 131.7-3.68 133.15-2.4 135.65-2.4L135.65-2.4ZM156.99-2.55L156.99-24.45 153.14-25.3 153.14-27.55 159.49-28.35 159.64-28.35 160.59-27.55 160.59-25.35 160.54-24.1Q162.39-25.7 165.44-27.05 168.49-28.4 171.09-28.4L171.09-28.4Q174.29-28.4 176.01-27.18 177.74-25.95 178.41-23.43 179.09-20.9 179.09-16.65L179.09-16.65 179.09-2.5 182.84-2.15 182.84 0 171.69 0 171.69-2.15 175.04-2.5 175.04-16.7Q175.04-19.85 174.61-21.65 174.19-23.45 172.96-24.38 171.74-25.3 169.39-25.3L169.39-25.3Q167.39-25.3 165.06-24.3 162.74-23.3 161.04-21.95L161.04-21.95 161.04-2.55 164.69-2.15 164.69 0 153.64 0 153.64-2.15 156.99-2.55Z" fill="#010c80" data-fill-palette-color="primary" stroke-width="7" stroke="black" stroke-linejoin="round"></path><path d="M196.32-2.6L196.32-34.45 192.12-35 192.12-37.15 216.87-37.15 217.57-29.8 215.17-29.8 213.82-34.6 200.42-34.85 200.42-20.3 209.62-20.45 210.27-24.6 212.77-24.6 212.77-13.55 210.27-13.55 209.62-17.8 200.42-17.95 200.42-2.55 215.72-2.95 218.27-9.2 220.67-8.45 219.12 0 192.02 0 192.02-2.15 196.32-2.6ZM224.9 0L224.9-2.1 228.9-2.4 228.9-24.45 225.05-25.3 225.05-27.55 231.4-28.35 231.5-28.35 232.45-27.55 232.45-26.75 232.35-22.95 232.45-22.95Q232.55-23.05 233.78-24.48 235-25.9 237.43-27.2 239.85-28.5 242.3-28.5L242.3-28.5Q243.1-28.5 243.8-28.3L243.8-28.3 243.8-23.9Q243.6-24.05 242.93-24.2 242.25-24.35 241.5-24.35L241.5-24.35Q238.65-24.35 236.65-23.5 234.65-22.65 232.95-21.4L232.95-21.4 232.95-2.45 239.6-2.05 239.6 0 224.9 0ZM247.89 0L247.89-2.1 251.89-2.4 251.89-24.45 248.04-25.3 248.04-27.55 254.39-28.35 254.49-28.35 255.44-27.55 255.44-26.75 255.34-22.95 255.44-22.95Q255.54-23.05 256.76-24.48 257.99-25.9 260.41-27.2 262.84-28.5 265.29-28.5L265.29-28.5Q266.09-28.5 266.79-28.3L266.79-28.3 266.79-23.9Q266.59-24.05 265.91-24.2 265.24-24.35 264.49-24.35L264.49-24.35Q261.64-24.35 259.64-23.5 257.64-22.65 255.94-21.4L255.94-21.4 255.94-2.45 262.59-2.05 262.59 0 247.89 0ZM270.67-14.05Q270.67-18.4 272.5-21.7 274.32-25 277.3-26.75 280.27-28.5 283.52-28.5L283.52-28.5Q289.82-28.5 292.85-24.4 295.87-20.3 295.87-13.9L295.87-13.9Q295.87-9.55 294.05-6.25 292.22-2.95 289.25-1.2 286.27 0.55 283.02 0.55L283.02 0.55Q276.72 0.55 273.7-3.55 270.67-7.65 270.67-14.05L270.67-14.05ZM283.27-2.05Q287.12-2.05 289.22-5 291.32-7.95 291.32-13.6L291.32-13.6Q291.32-19 289.37-22.45 287.42-25.9 283.32-25.9L283.32-25.9Q279.47-25.9 277.35-22.95 275.22-20 275.22-14.35L275.22-14.35Q275.22-8.9 277.2-5.48 279.17-2.05 283.27-2.05L283.27-2.05ZM301.11 0L301.11-2.1 305.11-2.4 305.11-24.45 301.26-25.3 301.26-27.55 307.61-28.35 307.71-28.35 308.66-27.55 308.66-26.75 308.56-22.95 308.66-22.95Q308.76-23.05 309.98-24.48 311.21-25.9 313.63-27.2 316.06-28.5 318.51-28.5L318.51-28.5Q319.31-28.5 320.01-28.3L320.01-28.3 320.01-23.9Q319.81-24.05 319.13-24.2 318.46-24.35 317.71-24.35L317.71-24.35Q314.86-24.35 312.86-23.5 310.86-22.65 309.16-21.4L309.16-21.4 309.16-2.45 315.81-2.05 315.81 0 301.11 0Z" fill="#a20000" data-fill-palette-color="secondary" stroke-width="7" stroke="black" stroke-linejoin="round"></path><path d="M333.64-2.6L333.64-34.45 329.64-35 329.64-37.15 335.69-37.15Q336.79-37.15 337.87-37.23 338.94-37.3 339.44-37.3L339.44-37.3Q342.04-37.5 344.44-37.5L344.44-37.5Q351.49-37.5 354.42-34.88 357.34-32.25 357.34-27L357.34-27Q357.34-23.05 355.44-20.15 353.54-17.25 350.29-15.73 347.04-14.2 343.04-14.2L343.04-14.2Q341.44-14.2 339.77-14.28 338.09-14.35 337.74-14.4L337.74-14.4 337.74-2.65 344.69-2.15 344.69 0 329.34 0 329.34-2.15 333.64-2.6ZM337.74-16.85Q338.99-16.65 343.14-16.65L343.14-16.65Q347.44-16.65 350.19-19.07 352.94-21.5 352.94-27L352.94-27Q352.94-31.35 350.59-33.23 348.24-35.1 343.19-35.1L343.19-35.1Q341.64-35.1 339.74-34.9L339.74-34.9Q338.24-34.8 337.74-34.8L337.74-34.8 337.74-16.85ZM361.67 0L361.67-2.1 365.67-2.4 365.67-24.45 361.82-25.3 361.82-27.55 368.17-28.35 368.27-28.35 369.22-27.55 369.22-26.75 369.12-22.95 369.22-22.95Q369.32-23.05 370.55-24.48 371.77-25.9 374.2-27.2 376.62-28.5 379.07-28.5L379.07-28.5Q379.87-28.5 380.57-28.3L380.57-28.3 380.57-23.9Q380.37-24.05 379.7-24.2 379.02-24.35 378.27-24.35L378.27-24.35Q375.42-24.35 373.42-23.5 371.42-22.65 369.72-21.4L369.72-21.4 369.72-2.45 376.37-2.05 376.37 0 361.67 0ZM384.46-14.05Q384.46-18.4 386.28-21.7 388.11-25 391.08-26.75 394.06-28.5 397.31-28.5L397.31-28.5Q403.61-28.5 406.63-24.4 409.66-20.3 409.66-13.9L409.66-13.9Q409.66-9.55 407.83-6.25 406.01-2.95 403.03-1.2 400.06 0.55 396.81 0.55L396.81 0.55Q390.51 0.55 387.48-3.55 384.46-7.65 384.46-14.05L384.46-14.05ZM397.06-2.05Q400.91-2.05 403.01-5 405.11-7.95 405.11-13.6L405.11-13.6Q405.11-19 403.16-22.45 401.21-25.9 397.11-25.9L397.11-25.9Q393.26-25.9 391.13-22.95 389.01-20 389.01-14.35L389.01-14.35Q389.01-8.9 390.98-5.48 392.96-2.05 397.06-2.05L397.06-2.05ZM412.29-38.25L412.29-40.1 419.59-40.95 419.69-40.95 420.64-40.25 420.64-25.05Q422.19-26.5 424.37-27.5 426.54-28.5 429.19-28.5L429.19-28.5Q432.14-28.5 434.62-27.05 437.09-25.6 438.62-22.55 440.14-19.5 440.14-14.9L440.14-14.9Q440.14-10.6 438.39-7.08 436.64-3.55 433.39-1.5 430.14 0.55 425.89 0.55L425.89 0.55Q422.79 0.55 419.99-0.1 417.19-0.75 416.59-1.35L416.59-1.35 416.59-37.8 412.29-38.25ZM427.54-25.45Q425.44-25.45 423.59-24.45 421.74-23.45 420.64-22.25L420.64-22.25 420.64-3.75Q420.99-2.95 422.62-2.48 424.24-2 426.24-2L426.24-2Q430.54-2 433.14-5.18 435.74-8.35 435.74-14.5L435.74-14.5Q435.74-20 433.42-22.73 431.09-25.45 427.54-25.45L427.54-25.45ZM445.48-7.3Q445.48-12.15 450.28-14.33 455.08-16.5 462.23-16.65L462.23-16.65 462.23-18.2Q462.23-20.75 461.7-22.23 461.18-23.7 459.88-24.38 458.58-25.05 456.23-25.05L456.23-25.05Q453.68-25.05 451.6-24.28 449.53-23.5 447.58-22.4L447.58-22.4 446.48-24.6Q447.03-25.1 448.78-26 450.53-26.9 452.78-27.6 455.03-28.3 457.13-28.3L457.13-28.3Q460.53-28.3 462.5-27.35 464.48-26.4 465.35-24.3 466.23-22.2 466.23-18.65L466.23-18.65 466.23-2.15 469.33-2.15 469.33-0.3Q466.58 0.45 464.68 0.45L464.68 0.45Q463.48 0.45 463.03 0.08 462.58-0.3 462.58-1.65L462.58-1.65 462.58-3.5Q460.78-1.9 458.65-0.68 456.53 0.55 453.83 0.55L453.83 0.55Q450.23 0.55 447.85-1.45 445.48-3.45 445.48-7.3L445.48-7.3ZM455.33-2.4Q456.73-2.4 458.68-3.3 460.63-4.2 462.23-5.45L462.23-5.45 462.23-14.3Q456.18-14.25 453.05-12.5 449.93-10.75 449.93-7.8L449.93-7.8Q449.93-4.95 451.38-3.68 452.83-2.4 455.33-2.4L455.33-2.4ZM471.11-38.25L471.11-40.1 478.41-40.95 478.51-40.95 479.46-40.25 479.46-25.05Q481.01-26.5 483.19-27.5 485.36-28.5 488.01-28.5L488.01-28.5Q490.96-28.5 493.44-27.05 495.91-25.6 497.44-22.55 498.96-19.5 498.96-14.9L498.96-14.9Q498.96-10.6 497.21-7.08 495.46-3.55 492.21-1.5 488.96 0.55 484.71 0.55L484.71 0.55Q481.61 0.55 478.81-0.1 476.01-0.75 475.41-1.35L475.41-1.35 475.41-37.8 471.11-38.25ZM486.36-25.45Q484.26-25.45 482.41-24.45 480.56-23.45 479.46-22.25L479.46-22.25 479.46-3.75Q479.81-2.95 481.44-2.48 483.06-2 485.06-2L485.06-2Q489.36-2 491.96-5.18 494.56-8.35 494.56-14.5L494.56-14.5Q494.56-20 492.24-22.73 489.91-25.45 486.36-25.45L486.36-25.45ZM509.85-33Q507.15-33 507.15-35.85L507.15-35.85Q507.15-37.3 508-38.23 508.85-39.15 510.3-39.15L510.3-39.15Q511.8-39.15 512.45-38.33 513.1-37.5 513.1-36.3L513.1-36.3Q513.1-34.75 512.27-33.88 511.45-33 509.9-33L509.9-33 509.85-33ZM508.25-2.55L508.25-24.45 504.35-25.3 504.35-27.55 511.2-28.35 511.3-28.35 512.3-27.55 512.3-2.5 516.65-2.15 516.65 0 503.85 0 503.85-2.15 508.25-2.55ZM524.78-2.55L524.78-37.8 520.53-38.25 520.53-40.1 527.83-40.95 527.88-40.95 528.83-40.3 528.83-2.5 533.53-2.15 533.53 0 520.38 0 520.38-2.15 524.78-2.55ZM543.47-33Q540.77-33 540.77-35.85L540.77-35.85Q540.77-37.3 541.62-38.23 542.47-39.15 543.92-39.15L543.92-39.15Q545.42-39.15 546.07-38.33 546.72-37.5 546.72-36.3L546.72-36.3Q546.72-34.75 545.89-33.88 545.07-33 543.52-33L543.52-33 543.47-33ZM541.87-2.55L541.87-24.45 537.97-25.3 537.97-27.55 544.82-28.35 544.92-28.35 545.92-27.55 545.92-2.5 550.27-2.15 550.27 0 537.47 0 537.47-2.15 541.87-2.55ZM562.95 0.55Q560.3 0.55 558.95-0.68 557.6-1.9 557.6-5.05L557.6-5.05 557.6-24.8 553.8-24.8 553.8-26.75Q556.3-27.3 556.7-27.55L556.7-27.55Q557.45-27.95 557.8-29.1L557.8-29.1Q558.1-29.85 558.6-31.8 559.1-33.75 559.35-34.85L559.35-34.85 561.65-34.85 561.65-27.75 570.5-27.75 570.5-24.8 561.65-24.8 561.65-8.6Q561.65-5.7 561.85-4.53 562.05-3.35 562.65-3 563.25-2.65 564.75-2.65L564.75-2.65Q566.2-2.65 568-3.05 569.8-3.45 570.7-3.9L570.7-3.9 571.35-2Q570.2-1.1 567.55-0.28 564.9 0.55 562.95 0.55L562.95 0.55ZM578.84 12.45Q578.14 12.45 577.41 12.35 576.69 12.25 576.39 12.1L576.39 12.1 576.39 8.4Q576.99 8.7 578.94 8.7L578.94 8.7Q580.49 8.7 581.76 8.08 583.04 7.45 584.39 5.55 585.74 3.65 587.04 0L587.04 0 584.84 0 575.29-25.05 572.94-25.7 572.94-27.75 583.99-27.75 583.99-25.7 579.94-25.1 585.19-9.8 587.79-1.65 590.29-9.85 594.99-25.1 591.49-25.7 591.49-27.75 601.09-27.75 601.09-25.7 598.49-25.1Q594.74-13.6 592.56-7.13 590.39-0.65 589.79 0.8L589.79 0.8Q588.04 5.2 586.69 7.58 585.34 9.95 583.49 11.2 581.64 12.45 578.84 12.45L578.84 12.45Z" fill="#0091cf" data-fill-palette-color="accent" stroke-width="7" stroke="black" stroke-linejoin="round"></path><path d="M626.62 0.55Q621.27 0.55 617.42-1.85 613.57-4.25 611.57-8.6 609.57-12.95 609.57-18.75L609.57-18.75Q609.57-24.2 611.92-28.5 614.27-32.8 618.32-35.18 622.37-37.55 627.37-37.55L627.37-37.55Q629.92-37.55 632.3-37.15 634.67-36.75 636.12-36.4 637.57-36.05 637.92-35.95L637.92-35.95 637.52-27.8 634.92-27.8 633.82-33.6Q633.07-34.25 631.12-34.7 629.17-35.15 626.37-35.15L626.37-35.15Q622.92-35.15 620.17-33.27 617.42-31.4 615.85-27.8 614.27-24.2 614.27-19.2L614.27-19.2Q614.27-14.5 615.65-10.55 617.02-6.6 619.82-4.23 622.62-1.85 626.72-1.85L626.72-1.85Q629.57-1.85 631.17-2.33 632.77-2.8 633.87-3.7L633.87-3.7 635.87-8.4 638.32-8.05 637.07-1.35Q635.87-1.3 634.17-0.7L634.17-0.7Q632.37-0.1 630.72 0.23 629.07 0.55 626.62 0.55L626.62 0.55ZM643.25-7.3Q643.25-12.15 648.05-14.33 652.85-16.5 660-16.65L660-16.65 660-18.2Q660-20.75 659.48-22.23 658.95-23.7 657.65-24.38 656.35-25.05 654-25.05L654-25.05Q651.45-25.05 649.38-24.28 647.3-23.5 645.35-22.4L645.35-22.4 644.25-24.6Q644.8-25.1 646.55-26 648.3-26.9 650.55-27.6 652.8-28.3 654.9-28.3L654.9-28.3Q658.3-28.3 660.28-27.35 662.25-26.4 663.13-24.3 664-22.2 664-18.65L664-18.65 664-2.15 667.1-2.15 667.1-0.3Q664.35 0.45 662.45 0.45L662.45 0.45Q661.25 0.45 660.8 0.08 660.35-0.3 660.35-1.65L660.35-1.65 660.35-3.5Q658.55-1.9 656.43-0.68 654.3 0.55 651.6 0.55L651.6 0.55Q648 0.55 645.63-1.45 643.25-3.45 643.25-7.3L643.25-7.3ZM653.1-2.4Q654.5-2.4 656.45-3.3 658.4-4.2 660-5.45L660-5.45 660-14.3Q653.95-14.25 650.83-12.5 647.7-10.75 647.7-7.8L647.7-7.8Q647.7-4.95 649.15-3.68 650.6-2.4 653.1-2.4L653.1-2.4ZM675.39-2.55L675.39-37.8 671.14-38.25 671.14-40.1 678.44-40.95 678.49-40.95 679.44-40.3 679.44-2.5 684.14-2.15 684.14 0 670.99 0 670.99-2.15 675.39-2.55ZM687.67-13.7Q687.67-17.75 689.25-21.13 690.82-24.5 693.95-26.5 697.07-28.5 701.57-28.5L701.57-28.5Q703.52-28.5 705.37-28.03 707.22-27.55 708.57-27L708.57-27 708.37-19.85 705.87-19.85 704.82-24.65Q704.52-26.15 700.52-26.15L700.52-26.15Q696.62-26.15 694.3-23.15 691.97-20.15 691.97-14.95L691.97-14.95Q691.97-8.75 694.47-5.55 696.97-2.35 700.97-2.35L700.97-2.35Q703.07-2.35 705.05-3.05 707.02-3.75 708.32-4.65L708.32-4.65 709.12-3Q707.67-1.55 705.12-0.5 702.57 0.55 700.07 0.55L700.07 0.55Q696.12 0.55 693.32-1.33 690.52-3.2 689.1-6.43 687.67-9.65 687.67-13.7L687.67-13.7ZM737.06 0.45Q735.76 0.45 735.16 0 734.56-0.45 734.56-1.65L734.56-1.65 734.56-3.6Q732.71-1.95 730.21-0.7 727.71 0.55 725.21 0.55L725.21 0.55Q720.66 0.55 718.73-2 716.81-4.55 716.81-10.3L716.81-10.3 716.81-25 713.86-25.85 713.86-27.7 719.91-28.35 719.96-28.35 720.86-27.75 720.86-10.9Q720.86-7.75 721.31-5.98 721.76-4.2 722.96-3.35 724.16-2.5 726.46-2.5L726.46-2.5Q728.66-2.5 730.66-3.45 732.66-4.4 734.11-5.7L734.11-5.7 734.11-25 730.31-25.85 730.31-27.7 736.96-28.35 737.01-28.35 738.16-27.75 738.16-2.2 741.26-2.2 741.21-0.3Q740.96-0.25 739.76 0.1 738.56 0.45 737.06 0.45L737.06 0.45ZM750.14-2.55L750.14-37.8 745.89-38.25 745.89-40.1 753.19-40.95 753.24-40.95 754.19-40.3 754.19-2.5 758.89-2.15 758.89 0 745.74 0 745.74-2.15 750.14-2.55ZM763.28-7.3Q763.28-12.15 768.08-14.33 772.88-16.5 780.03-16.65L780.03-16.65 780.03-18.2Q780.03-20.75 779.5-22.23 778.98-23.7 777.68-24.38 776.38-25.05 774.03-25.05L774.03-25.05Q771.48-25.05 769.4-24.28 767.33-23.5 765.38-22.4L765.38-22.4 764.28-24.6Q764.83-25.1 766.58-26 768.33-26.9 770.58-27.6 772.83-28.3 774.93-28.3L774.93-28.3Q778.33-28.3 780.3-27.35 782.28-26.4 783.15-24.3 784.03-22.2 784.03-18.65L784.03-18.65 784.03-2.15 787.13-2.15 787.13-0.3Q784.38 0.45 782.48 0.45L782.48 0.45Q781.28 0.45 780.83 0.08 780.38-0.3 780.38-1.65L780.38-1.65 780.38-3.5Q778.58-1.9 776.45-0.68 774.33 0.55 771.63 0.55L771.63 0.55Q768.03 0.55 765.65-1.45 763.28-3.45 763.28-7.3L763.28-7.3ZM773.13-2.4Q774.53-2.4 776.48-3.3 778.43-4.2 780.03-5.45L780.03-5.45 780.03-14.3Q773.98-14.25 770.85-12.5 767.73-10.75 767.73-7.8L767.73-7.8Q767.73-4.95 769.18-3.68 770.63-2.4 773.13-2.4L773.13-2.4ZM799.96 0.55Q797.31 0.55 795.96-0.68 794.61-1.9 794.61-5.05L794.61-5.05 794.61-24.8 790.81-24.8 790.81-26.75Q793.31-27.3 793.71-27.55L793.71-27.55Q794.46-27.95 794.81-29.1L794.81-29.1Q795.11-29.85 795.61-31.8 796.11-33.75 796.36-34.85L796.36-34.85 798.66-34.85 798.66-27.75 807.51-27.75 807.51-24.8 798.66-24.8 798.66-8.6Q798.66-5.7 798.86-4.53 799.06-3.35 799.66-3 800.26-2.65 801.76-2.65L801.76-2.65Q803.21-2.65 805.01-3.05 806.81-3.45 807.71-3.9L807.71-3.9 808.36-2Q807.21-1.1 804.56-0.28 801.91 0.55 799.96 0.55L799.96 0.55ZM812.1-14.05Q812.1-18.4 813.92-21.7 815.75-25 818.72-26.75 821.7-28.5 824.95-28.5L824.95-28.5Q831.25-28.5 834.27-24.4 837.3-20.3 837.3-13.9L837.3-13.9Q837.3-9.55 835.47-6.25 833.65-2.95 830.67-1.2 827.7 0.55 824.45 0.55L824.45 0.55Q818.15 0.55 815.12-3.55 812.1-7.65 812.1-14.05L812.1-14.05ZM824.7-2.05Q828.55-2.05 830.65-5 832.75-7.95 832.75-13.6L832.75-13.6Q832.75-19 830.8-22.45 828.85-25.9 824.75-25.9L824.75-25.9Q820.9-25.9 818.77-22.95 816.65-20 816.65-14.35L816.65-14.35Q816.65-8.9 818.62-5.48 820.6-2.05 824.7-2.05L824.7-2.05ZM842.53 0L842.53-2.1 846.53-2.4 846.53-24.45 842.68-25.3 842.68-27.55 849.03-28.35 849.13-28.35 850.08-27.55 850.08-26.75 849.98-22.95 850.08-22.95Q850.18-23.05 851.41-24.48 852.63-25.9 855.06-27.2 857.48-28.5 859.93-28.5L859.93-28.5Q860.73-28.5 861.43-28.3L861.43-28.3 861.43-23.9Q861.23-24.05 860.56-24.2 859.88-24.35 859.13-24.35L859.13-24.35Q856.28-24.35 854.28-23.5 852.28-22.65 850.58-21.4L850.58-21.4 850.58-2.45 857.23-2.05 857.23 0 842.53 0Z" fill="#010c80" data-fill-palette-color="primary" stroke-width="7" stroke="black" stroke-linejoin="round"></path></g></svg></g></svg></g></svg></g></svg></g></svg></g></svg></g></svg></g></mask></svg></g><defs></defs></svg><rect width="395.52" height="247.2" fill="none" stroke="none" visibility="hidden"></rect></g></svg></g></svg>